<?xml version="1.0" encoding="UTF-8" standalone="no"?>
<svg
   xmlns:dc="http://purl.org/dc/elements/1.1/"
   xmlns:cc="http://creativecommons.org/ns#"
   xmlns:rdf="http://www.w3.org/1999/02/22-rdf-syntax-ns#"
   xmlns:svg="http://www.w3.org/2000/svg"
   xmlns="http://www.w3.org/2000/svg"
   id="svg66"
   version="1.1"
   viewBox="0 0 1122.1102 224.14354"
   height="224.14354pt"
   width="1122.1102pt">
  <metadata
     id="metadata72">
    <rdf:RDF>
      <cc:Work
         rdf:about="">
        <dc:format>image/svg+xml</dc:format>
        <dc:type
           rdf:resource="http://purl.org/dc/dcmitype/StillImage" />
        <dc:title></dc:title>
      </cc:Work>
    </rdf:RDF>
  </metadata>
  <defs
     id="defs70" />
  <g
     transform="translate(-105.87768,-242.11645)"
     id="#3a3c95ff">
    <path
       id="path10"
       d="m 242.44,242.62 c 5.8,-0.97 12.29,-0.76 17.32,2.62 6.42,4.35 6.37,15.17 0.05,19.6 -4.25,3.05 -9.78,3.53 -14.85,3.1 -4.26,-0.4 -8.74,-1.98 -11.41,-5.49 -3.58,-4.8 -3.13,-12.41 1.47,-16.4 2.08,-1.83 4.73,-2.88 7.42,-3.43 z"
       opacity="1.00"
       fill="#3a3c95" />
    <path
       id="path12"
       d="m 113.31,264.38 c 8.3,-10.54 21.79,-15.54 34.82,-16.68 18.47,-1.31 37.57,2.22 53.62,11.7 0.14,9.26 0.02,18.52 0.07,27.78 -12.87,-8.03 -27.57,-13.32 -42.69,-14.72 -7.1,-0.47 -14.94,-0.48 -21.06,3.67 -4.64,3.05 -5.91,9.9 -2.9,14.5 2.36,3.54 6.41,5.36 10.24,6.86 14.7,5.29 30.37,7.78 44.56,14.5 8.11,3.81 15.44,10.27 18.21,19.02 3.74,11.73 2.34,25.74 -5.93,35.27 -8.25,9.61 -21.07,13.8 -33.33,14.99 -20.3,1.58 -41.49,-2.49 -58.86,-13.38 0.03,-8.92 -0.06,-17.85 0.05,-26.77 12.15,8.33 26.41,13.35 40.88,15.75 8.93,1.16 18.62,1.92 27,-1.99 6.21,-2.85 7.42,-11.94 2.85,-16.74 -3.5,-3.64 -8.47,-5.24 -13.12,-6.85 -13.16,-4.34 -27,-6.61 -39.75,-12.17 -8.64,-3.75 -16.73,-10.15 -19.93,-19.3 -4.02,-11.68 -2.53,-25.61 5.27,-35.44 z"
       opacity="1.00"
       fill="#3a3c95" />
    <path
       id="path14"
       d="m 313.68,291.7 c 12.1,-10.94 29.4,-16.83 45.52,-12.81 7.81,1.85 14.43,7.45 17.8,14.71 9.72,-9.18 22.5,-15.54 36.01,-15.92 8.67,-0.37 18.04,1.65 24.32,8.03 7.09,7.09 9.31,17.54 9.53,27.24 0.04,22.27 0.01,44.53 0.01,66.8 -8.07,0.02 -16.14,-0.04 -24.21,0.03 -0.09,-19.61 -0.01,-39.22 -0.03,-58.83 0,-5.21 -1.16,-10.79 -4.87,-14.68 -3.25,-3.46 -8.12,-4.84 -12.75,-4.92 -8.48,-0.18 -16.77,2.5 -24.22,6.38 0.76,23.99 0.14,48.01 0.33,72.02 -8.18,-0.09 -16.37,0.19 -24.55,-0.15 0.27,-19.19 0.03,-38.39 0.13,-57.59 0.05,-5.33 -0.79,-11.07 -4.36,-15.26 -3,-3.58 -7.74,-5.17 -12.29,-5.37 -8.66,-0.42 -17.1,2.36 -24.81,6.08 -0.12,24.09 -0.01,48.19 -0.06,72.29 -8.14,0 -16.28,0 -24.42,0 -0.02,-33.4 -0.01,-66.79 -0.01,-100.18 7.63,-0.04 15.26,0.04 22.88,-0.04 0.1,4.05 0.06,8.11 0.05,12.17 z"
       opacity="1.00"
       fill="#3a3c95" />
    <path
       id="path16"
       d="m 499.04,286.8 c 17.73,-13.69 46.24,-12.22 61.26,4.9 10.35,11.7 12.86,28.3 11.3,43.38 -1.35,14.19 -8.51,28.03 -20.4,36.18 -14.55,10.31 -33.46,12.05 -50.64,9.11 0,9.75 0,19.5 0,29.25 -8.14,0.01 -16.29,-0.01 -24.43,0.01 -0.02,-43.35 0,-86.71 -0.01,-130.06 7.65,-0.01 15.29,-0.01 22.94,0 0,2.41 0,4.82 -0.02,7.23 m 1.51,17.92 c 0.04,17.7 -0.01,35.4 0.02,53.1 9.55,2.63 20.04,3.02 29.36,-0.69 6.35,-2.48 11.67,-7.52 14.26,-13.85 3.01,-7.36 3.25,-15.65 1.73,-23.38 -1.5,-7.73 -6.46,-15.01 -13.87,-18.1 -10.18,-4.36 -22.04,-2.28 -31.5,2.92 z"
       opacity="1.00"
       fill="#3a3c95" />
    <path
       id="path18"
       d="m 235.57,279.57 c 8.14,-0.01 16.28,-0.01 24.43,-0.01 0,33.4 0.01,66.8 -0.01,100.2 -8.14,-0.01 -16.28,-0.02 -24.42,0 -0.02,-33.4 0,-66.8 0,-100.19 z"
       opacity="1.00"
       fill="#3a3c95" />
  </g>
  <g
     transform="translate(-105.87768,-242.11645)"
     id="#000000ff">
    <path
       id="path21"
       d="m 650.88,248.88 c 19.71,-3.28 40.51,0.8 57.47,11.39 0.17,4.54 0.05,9.09 0.1,13.64 -12.42,-8.7 -27.28,-14.05 -42.5,-14.32 -14.2,-0.52 -28.78,4.27 -39.17,14.14 -21.75,20.45 -22.52,58.84 -1.83,80.29 8.86,9.23 21.3,14.66 34,15.63 17.52,1.43 35.2,-4.05 49.49,-14.12 0,4.55 -0.01,9.11 0.01,13.67 -16.28,10.46 -36.34,14.46 -55.44,11.89 -14.99,-2.07 -29.34,-9.28 -39.46,-20.61 -22.57,-25.08 -22.24,-67.41 0.8,-92.09 9.55,-10.35 22.69,-17.13 36.53,-19.51 z"
       opacity="1.00"
       fill="#000000" />
    <path
       id="path23"
       d="m 1166.98,248.89 c 20.11,-3.23 41.45,0.61 58.75,11.52 0.03,4.51 0,9.03 0.03,13.55 -17.58,-12.28 -40.39,-17.7 -61.37,-12.35 -14.18,3.55 -26.81,13.25 -33.3,26.43 -7.57,15.26 -8.07,33.81 -1.82,49.61 5.38,13.56 17,24.31 30.82,28.9 17.28,5.77 36.67,3.81 53.08,-3.8 0.04,-13.98 0.01,-27.96 0.01,-41.93 -15.49,-0.01 -30.98,-0.01 -46.47,0 -0.04,-3.63 -0.04,-7.25 -0.01,-10.88 19.68,-0.01 39.36,-0.01 59.05,0.01 -0.08,19.8 0.15,39.61 -0.12,59.41 -18.86,11.8 -42.45,15.35 -64.04,10.23 -15.05,-3.6 -28.94,-12.47 -37.82,-25.24 -9.28,-13.08 -12.91,-29.61 -11.65,-45.47 1.01,-14.2 6.35,-28.21 15.84,-38.92 9.94,-11.41 24.16,-18.67 39.02,-21.07 z"
       opacity="1.00"
       fill="#000000" />
    <path
       id="path25"
       d="m 965.04,379.75 c 18.64,-43.36 37.3,-86.71 55.95,-130.06 5.26,0 10.51,-0.03 15.78,0.02 18.61,43.36 37.3,86.69 55.93,130.04 -4.7,-0.07 -9.39,0.17 -14.07,-0.16 -5.74,-14.3 -12.03,-28.38 -17.86,-42.64 -21.3,-0.18 -42.6,-0.03 -63.9,-0.07 -6.07,14.28 -12.09,28.58 -18.14,42.86 -4.57,0.01 -9.13,0.01 -13.69,0.01 m 63.67,-117.9 c -8.99,21.27 -18.09,42.49 -27.05,63.77 18.08,0.01 36.16,0 54.24,0 -9.08,-21.25 -17.93,-42.6 -27.19,-63.77 z"
       opacity="1.00"
       fill="#000000" />
    <path
       id="path27"
       d="m 735.83,289.83 c 12.54,-9.85 29.35,-14.18 45.06,-11.31 7.99,1.47 15.74,5.37 20.86,11.81 5.8,7.17 7.96,16.61 8,25.67 0,21.25 0,42.5 -0.01,63.75 -3.72,0 -7.45,0 -11.17,0 -0.02,-4.98 -0.02,-9.97 0.01,-14.95 -8.78,9.3 -20.72,16.07 -33.67,16.76 -9.14,0.45 -19.14,-0.99 -26.22,-7.26 -7.2,-6.36 -9.1,-17.14 -6.53,-26.11 2.32,-8 8.77,-14.19 16.16,-17.68 15.42,-7 33.46,-6.49 49.49,-1.9 -0.24,-8.81 1.16,-18.24 -3.13,-26.35 -3.52,-7.07 -11.04,-11.36 -18.7,-12.39 -16.34,-2.36 -32.96,4.75 -44.16,16.53 0.06,-4.2 -0.16,-8.4 0.06,-12.58 0.9,-1.67 2.54,-2.77 3.95,-3.99 m 25.18,46.12 c -6.34,1.67 -12.82,4.91 -16.18,10.8 -3.72,6.6 -2.8,16.22 3.57,20.89 5.34,3.87 12.31,4.44 18.69,3.96 11.65,-1.04 22.16,-7.22 30.7,-14.91 0.04,-6.56 0.01,-13.11 0.02,-19.67 -11.91,-3.43 -24.73,-4.09 -36.8,-1.07 z"
       opacity="1.00"
       fill="#000000" />
    <path
       id="path29"
       d="m 857.75,294.94 c 8.09,-7.88 17.76,-15.02 29.17,-16.89 6.23,-1.13 12.74,0.05 18.27,3.11 -0.01,4.24 -0.01,8.49 0.01,12.74 -7.44,-4.83 -17.05,-5.98 -25.42,-3.08 -7.91,2.69 -15.25,7.14 -21.37,12.82 0.21,25.36 0.03,50.73 0.09,76.1 -4.04,0.01 -8.09,0.01 -12.12,0 0,-33.39 -0.02,-66.78 0,-100.18 3.78,0 7.57,0 11.36,0 0.02,5.13 0,10.25 0.01,15.38 z"
       opacity="1.00"
       fill="#000000" />
    <path
       id="path31"
       d="m 876.74,405.15 c 1.97,0.02 3.96,0.04 5.95,0.05 0,15.91 -0.01,31.82 0,47.73 -2.01,0 -4.01,0 -6,0.01 0.02,-15.93 -0.07,-31.86 0.05,-47.79 z"
       opacity="1.00"
       fill="#000000" />
    <path
       id="path33"
       d="m 1157.5,405.19 c 1.94,0 3.9,0 5.88,0.01 -0.03,6.67 0.04,13.35 -0.04,20.02 4.8,-6.95 16.22,-7.68 21.38,-0.78 5.16,7.04 4.93,17.89 -0.68,24.62 -5.43,6.51 -16.99,6.21 -21.39,-1.32 -0.1,1.73 -0.19,3.46 -0.27,5.2 -1.74,-0.01 -3.45,-0.01 -5.15,-0.01 0.57,-15.9 0.13,-31.83 0.27,-47.74 m 10.84,20.35 c -3,1.66 -4.88,5.02 -4.92,8.42 -0.11,4.1 -0.69,8.9 2.48,12.1 3.67,4.2 11.19,3.7 14.18,-1.05 3.01,-4.83 3.1,-11.47 0.25,-16.39 -2.32,-4.05 -8,-5.49 -11.99,-3.08 z"
       opacity="1.00"
       fill="#000000" />
    <path
       id="path35"
       d="m 600.64,408.15 c 8.99,-1.03 18.76,-2.12 27.13,2.11 6.48,3.33 10.05,10.62 10.08,17.74 0.42,7.99 -2.46,16.81 -9.52,21.24 -8.26,5.08 -18.44,4.35 -27.7,3.62 -0.01,-14.91 -0.02,-29.81 0.01,-44.71 m 5.91,4.34 c 0.02,11.95 -0.01,23.91 0.02,35.86 6.22,0.48 13.14,0.6 18.41,-3.28 5.04,-3.61 6.86,-10.15 6.71,-16.09 0.02,-5.12 -1.78,-10.58 -6.09,-13.65 -5.48,-3.92 -12.67,-3.78 -19.05,-2.84 z"
       opacity="1.00"
       fill="#000000" />
    <path
       id="path37"
       d="m 759.27,408.21 c 2.18,-1.77 6.01,-0.2 5.94,2.73 0.56,3.09 -3.36,5.01 -5.76,3.44 -2.14,-1.3 -2.21,-4.74 -0.18,-6.17 z"
       opacity="1.00"
       fill="#000000" />
    <path
       id="path39"
       d="m 945.35,452.96 c 5.1,-15.15 10.26,-30.27 15.41,-45.4 2.36,-0.01 4.73,0 7.11,0.01 5.15,15.12 10.32,30.24 15.47,45.36 -2.12,0 -4.22,0 -6.32,0.01 -1.64,-4.75 -3.23,-9.51 -4.86,-14.25 -5.33,-0.01 -10.66,-0.01 -15.99,0 -1.54,4.73 -3.17,9.43 -4.62,14.18 -2.07,0.05 -4.15,0.07 -6.2,0.09 m 12.07,-18.9 c 4.5,0 9,0.01 13.51,-0.01 -2.31,-7.04 -5,-13.97 -6.77,-21.17 -1.86,7.18 -4.41,14.14 -6.74,21.18 z"
       opacity="1.00"
       fill="#000000" />
    <path
       id="path41"
       d="m 1110.41,452.95 c 5.13,-15.13 10.26,-30.27 15.42,-45.39 2.36,0 4.72,0 7.1,0 5.16,15.12 10.33,30.24 15.48,45.37 -2.13,0 -4.23,0 -6.32,0.01 -1.64,-4.75 -3.22,-9.51 -4.87,-14.25 -5.34,0 -10.67,-0.02 -16,0.01 -1.52,4.73 -3.15,9.43 -4.61,14.18 -2.08,0.04 -4.15,0.05 -6.2,0.07 m 12.07,-18.9 c 4.5,0.02 9.01,0.01 13.52,0.01 -2.31,-7.07 -5.03,-14.01 -6.77,-21.25 -1.83,7.21 -4.41,14.19 -6.75,21.24 z"
       opacity="1.00"
       fill="#000000" />
    <path
       id="path43"
       d="m 1033.49,412.57 c 1.93,-0.54 3.87,-1.05 5.83,-1.55 -0.02,3.12 -0.01,6.23 0,9.36 2.82,-0.01 5.65,0 8.49,-0.01 -0.02,1.52 -0.02,3.04 0.01,4.57 -2.85,-0.04 -5.69,0 -8.52,0.06 0.05,5.67 -0.03,11.35 0.02,17.03 0.09,2.03 0.05,4.47 1.77,5.91 1.78,1.33 4.12,0.53 6.16,0.53 0.05,1.52 0.11,3.04 0.2,4.56 -3.49,0.59 -7.52,1.31 -10.6,-0.92 -2.89,-2.02 -3.32,-5.83 -3.35,-9.07 0.01,-5.99 -0.07,-11.97 0.08,-17.95 -1.73,-0.11 -3.45,-0.17 -5.15,-0.2 -0.01,-1.51 0,-3.01 0.01,-4.51 1.67,0 3.34,-0.01 5.04,0 0.01,-2.61 0.02,-5.21 0.01,-7.81 z"
       opacity="1.00"
       fill="#000000" />
    <path
       id="path45"
       d="m 647.7,422.24 c 5.11,-2.42 11.18,-3.7 16.61,-1.58 4.11,1.61 6.23,6.08 6.4,10.29 0.37,7.32 -0.33,14.69 0.57,22 -1.81,-0.02 -3.6,-0.02 -5.39,-0.02 -0.14,-1.34 -0.28,-2.67 -0.4,-4 -4.02,4.85 -11.93,6.62 -17.02,2.46 -4.56,-3.84 -4.03,-11.76 0.69,-15.26 4.48,-3.46 10.4,-3.82 15.84,-4.02 -0.17,-2.58 -0.57,-5.65 -3.1,-7.03 -4.13,-2.17 -9.04,-0.63 -12.94,1.31 -0.44,-1.39 -0.86,-2.77 -1.26,-4.15 m 3.64,20.69 c -1.04,5.38 5.7,8.06 9.69,5.29 4.48,-2.22 4.25,-7.69 4.04,-11.93 -4.99,0.05 -12.84,0.33 -13.73,6.64 z"
       opacity="1.00"
       fill="#000000" />
    <path
       id="path47"
       d="m 685.58,421.68 c 4.54,-3.09 10.56,-2.35 15.36,-0.24 -0.47,1.48 -0.93,2.96 -1.37,4.45 -3.02,-1.3 -6.57,-2.61 -9.77,-1.15 -2.56,1.01 -3.35,4.81 -1.24,6.66 3.13,2.51 7.47,2.94 10.51,5.66 4.37,3.52 3.91,11.2 -0.75,14.28 -5.24,3.35 -12.34,2.87 -17.69,0.03 0.5,-1.48 1.02,-2.94 1.52,-4.41 3.65,1.76 8.16,3.35 12.02,1.25 2.73,-1.52 2.84,-5.83 0.33,-7.61 -3.41,-2.43 -8.05,-2.88 -10.86,-6.2 -3.47,-3.67 -2.19,-10.1 1.94,-12.72 z"
       opacity="1.00"
       fill="#000000" />
    <path
       id="path49"
       d="m 732.4,421.31 c 4.46,-2.67 9.97,-1.79 14.61,-0.06 -0.28,1.58 -0.68,3.13 -1.17,4.66 -3.07,-1.34 -6.73,-2.69 -9.96,-1.08 -2.7,1.2 -3.13,5.43 -0.54,6.99 3.24,2.18 7.42,2.74 10.3,5.53 4.11,3.67 3.44,11.16 -1.22,14.1 -5.22,3.31 -11.97,2.48 -17.42,0.2 0.41,-1.57 0.85,-3.13 1.31,-4.68 3.68,1.66 8.12,3.33 12.02,1.3 2.93,-1.5 2.95,-6.15 0.2,-7.85 -3.46,-2.28 -8.04,-2.82 -10.77,-6.19 -3.48,-3.88 -1.81,-10.53 2.64,-12.92 z"
       opacity="1.00"
       fill="#000000" />
    <path
       id="path51"
       d="m 758.55,420.4 c 2,-0.02 4,-0.02 6.01,-0.03 0.02,10.84 -0.03,21.69 0.03,32.53 -2.02,0.01 -4.03,0.03 -6.03,0.05 -0.01,-10.85 0.01,-21.7 -0.01,-32.55 z"
       opacity="1.00"
       fill="#000000" />
    <path
       id="path53"
       d="m 782.16,425.64 c 2.18,-3.32 5.63,-6.05 9.79,-6.02 4.35,-0.45 8.26,2.45 9.97,6.32 2.76,-4.78 8.65,-7.66 14.05,-5.83 5.02,1.53 7.38,7.06 7.48,11.94 0.14,6.96 0.01,13.93 0.05,20.89 -1.95,-0.01 -3.88,-0.01 -5.81,-0.01 -0.08,-6.67 0.13,-13.34 -0.1,-20.01 -0.08,-3.49 -1.74,-7.77 -5.65,-8.31 -4.39,-0.9 -8.52,3.09 -8.67,7.37 -0.22,6.98 -0.01,13.97 -0.09,20.96 -1.95,-0.01 -3.88,-0.02 -5.82,-0.02 -0.01,-6.64 0.08,-13.28 -0.02,-19.92 0.03,-3.44 -1.54,-7.65 -5.33,-8.35 -4.89,-1.09 -9.18,3.73 -9.16,8.37 -0.12,6.63 0,13.27 -0.03,19.91 -1.95,0 -3.89,0 -5.82,0.01 -0.1,-10.85 0.23,-21.71 -0.25,-32.56 1.73,0 3.48,0 5.23,0 0.06,1.75 0.12,3.5 0.18,5.26 z"
       opacity="1.00"
       fill="#000000" />
    <path
       id="path55"
       d="m 835.48,420.39 c 1.79,-0.01 3.58,-0.02 5.39,-0.03 0.06,1.84 0.11,3.67 0.19,5.52 4.19,-6.99 14.94,-8.52 20.71,-2.66 6.15,6.34 6.29,17.12 1.72,24.38 -4.63,7.31 -16.54,8.38 -21.85,1.26 0.08,5.79 0.04,11.6 0.03,17.4 -1.98,-0.02 -3.95,-0.02 -5.92,-0.02 -0.13,-15.28 0.28,-30.57 -0.27,-45.85 m 13.91,4.14 c -4.42,0.82 -7.62,5.13 -7.68,9.53 -0.03,4.02 -0.74,8.75 2.32,11.93 3.61,4.28 11.18,3.94 14.24,-0.81 2.92,-4.51 3.08,-10.6 0.92,-15.44 -1.61,-3.7 -5.81,-6.07 -9.8,-5.21 z"
       opacity="1.00"
       fill="#000000" />
    <path
       id="path57"
       d="m 895.64,426.58 c 3.85,-6.93 13.9,-9.18 20.37,-4.66 4.83,3.59 6.11,10.15 5.53,15.84 -7.68,-0.01 -15.37,-0.03 -23.05,0.01 0.31,3.49 1.34,7.32 4.49,9.34 4.74,3.04 10.8,1.95 15.84,0.29 0.27,1.03 0.79,3.1 1.05,4.13 -6.89,2.82 -15.93,3.45 -21.93,-1.66 -6.29,-5.83 -6.39,-16.18 -2.3,-23.29 m 6.46,-0.46 c -2.07,1.89 -2.87,4.66 -3.54,7.29 5.83,0.04 11.66,0.06 17.49,-0.01 -0.37,-2.21 -0.57,-4.56 -1.94,-6.42 -2.63,-3.85 -8.79,-4.05 -12.01,-0.86 z"
       opacity="1.00"
       fill="#000000" />
    <path
       id="path59"
       d="m 1013.66,420.52 c 2,-0.14 4,-0.19 6.02,-0.15 0.1,10.86 -0.22,21.73 0.26,32.58 -1.77,-0.01 -3.53,-0.02 -5.27,-0.02 -0.12,-1.7 -0.23,-3.39 -0.3,-5.08 -3.64,5.46 -11.61,7.81 -17.23,4.02 -3.48,-2.39 -4.71,-6.81 -4.88,-10.81 -0.19,-6.89 0,-13.78 -0.09,-20.66 1.99,-0.02 4,-0.02 6.01,-0.03 0.06,6.52 -0.09,13.03 0.06,19.55 0.12,3.22 1.12,7.16 4.51,8.37 4.84,1.86 10.67,-2.06 10.92,-7.19 0.16,-6.86 0.1,-13.72 -0.01,-20.58 z"
       opacity="1.00"
       fill="#000000" />
    <path
       id="path61"
       d="m 1065.34,420.49 c 6.03,-2.02 13.49,-0.66 17.58,4.49 4.51,5.72 4.79,14.17 1.61,20.59 -4.04,8.03 -15.41,10.51 -22.78,5.68 -10.74,-7.03 -9.03,-26.74 3.59,-30.76 m 2.89,3.94 c -7.2,2.18 -8.74,11.58 -6.5,17.85 1.51,5.12 7.63,8.7 12.65,6.06 6.62,-3.58 7.56,-12.99 4.36,-19.19 -1.79,-3.86 -6.42,-5.98 -10.51,-4.72 z"
       opacity="1.00"
       fill="#000000" />
    <path
       id="path63"
       d="m 1206.44,420.57 c 6.45,-2.31 14.62,-0.55 18.53,5.37 3.84,5.82 3.94,13.83 0.73,19.95 -4.24,7.86 -15.53,10.15 -22.8,5.25 -10.46,-7.11 -8.81,-26.38 3.54,-30.57 m 2.92,3.92 c -7.16,2.41 -8.6,11.89 -6.15,18.16 1.64,5.1 7.96,8.35 12.83,5.52 6.37,-3.8 7.19,-13.02 3.96,-19.16 -1.86,-3.85 -6.57,-5.87 -10.64,-4.52 z"
       opacity="1.00"
       fill="#000000" />
  </g>
</svg>
