<?xml version="1.0" encoding="UTF-8" standalone="no"?>
<svg
   xmlns:dc="http://purl.org/dc/elements/1.1/"
   xmlns:cc="http://creativecommons.org/ns#"
   xmlns:rdf="http://www.w3.org/1999/02/22-rdf-syntax-ns#"
   xmlns:svg="http://www.w3.org/2000/svg"
   xmlns="http://www.w3.org/2000/svg"
   xmlns:sodipodi="http://sodipodi.sourceforge.net/DTD/sodipodi-0.dtd"
   xmlns:inkscape="http://www.inkscape.org/namespaces/inkscape"
   inkscape:version="1.1-dev (f9311a1, 2019-12-25)"
   sodipodi:docname="fahrzeugverkauf-preis.svg"
   id="svg16"
   enable-background="new 0 0 212.755 212.755"
   viewBox="0 0 212.755 212.755"
   version="1.1">
  <metadata
     id="metadata22">
    <rdf:RDF>
      <cc:Work
         rdf:about="">
        <dc:format>image/svg+xml</dc:format>
        <dc:type
           rdf:resource="http://purl.org/dc/dcmitype/StillImage" />
      </cc:Work>
    </rdf:RDF>
  </metadata>
  <defs
     id="defs20" />
  <sodipodi:namedview
     inkscape:current-layer="g14"
     inkscape:window-maximized="1"
     inkscape:window-y="25"
     inkscape:window-x="0"
     inkscape:cy="56.073235"
     inkscape:cx="-67.51223"
     inkscape:zoom="1.8189114"
     showgrid="false"
     id="namedview18"
     inkscape:window-height="1387"
     inkscape:window-width="2560"
     inkscape:pageshadow="2"
     inkscape:pageopacity="0"
     guidetolerance="10"
     gridtolerance="10"
     objecttolerance="10"
     borderopacity="1"
     inkscape:document-rotation="0"
     bordercolor="#666666"
     pagecolor="#ffffff" />
  <g
     id="g14"
     fill="#6667ac">
    <path
       sodipodi:nodetypes="ssssssssss"
       inkscape:connector-curvature="0"
       id="path10"
       d="m 106.377,6.935446 c -58.656,0 -99.6455377,41.397505 -99.6455377,100.053504 0,58.656 40.9895377,99.44156 99.6455377,99.44156 58.656,0 99.84952,-40.78556 99.84952,-99.44156 C 206.22652,48.332951 165.034,6.935446 106.377,6.935446 Z m 0,191.819554 C 55.44,198.755 14,157.314 14,106.377 14,55.44 55.44,14 106.377,14 c 50.937,0 92.377,41.44 92.377,92.377 0,50.937 -41.44,92.378 -92.377,92.378 z" />
    <path
       sodipodi:nodetypes="scccccssscsccccccssscscsccsccsccc"
       inkscape:connector-curvature="0"
       id="path12"
       d="m 110.9829,102.48066 -0.29099,-45.168218 c 3.961,1.471 12.46514,3.995806 14.86814,7.645806 2.127,3.229 4.29399,4.784655 7.52199,2.658655 3.229,-2.126 1.0983,-4.009425 -1.0287,-7.238425 -5.029,-7.636 -12.40193,-9.984337 -21.13593,-11.811337 l -0.029,-14.123101 C 110.88045,30.578048 110.243,27.706 106.377,27.706 c -3.866,0 -4.14809,3.134002 -4.14423,7 l 0.014,14.029185 c -15.492994,3.23 -26.067841,13.775249 -26.067841,30.212249 0,16.437 10.522136,26.577126 26.014131,29.807126 l -0.0581,47.71289 c -3.960999,-1.471 -11.876398,-6.91114 -14.279398,-10.56114 -2.127,-3.229 -4.766602,-5.44731 -7.994602,-3.32031 -3.229,2.126 -0.53116,4.57656 1.59584,7.80556 5.029,7.636 11.454691,13.19809 20.18869,15.02509 l 0.0945,12.53683 c 0.0292,3.86589 0.77095,7.09452 4.63695,7.09452 3.866,0 3.75638,-3.5122 3.78625,-7.37809 l 0.0945,-12.23226 c 15.493,-3.23 24.15364,-15.9703 24.15364,-32.4073 0,-16.437 -7.93551,-27.31969 -23.42851,-30.54969 z M 84.822909,79.041956 c 0,-8.653 9.95069,-20.193399 17.624681,-23.040399 l -0.24003,44.360213 C 94.533563,97.51477 84.822909,87.694956 84.822909,79.041956 Z m 25.614471,77.695634 -0.0365,-46.08822 c 7.674,2.847 16.13337,13.80045 16.13337,22.45345 0,8.653 -8.42192,20.78777 -16.09692,23.63477 z" />
  </g>
</svg>
