<svg id="_x31__px" height="512" viewBox="0 0 24 24" width="512" xmlns="http://www.w3.org/2000/svg" fill="#6667ac"><g><path d="m9.5 17h-3c-.276 0-.5-.224-.5-.5s.224-.5.5-.5h3c.275 0 .5-.224.5-.5v-2.132c0-.754-.613-1.368-1.367-1.368-.873 0-1.694-.465-2.145-1.213l-1.834-3.058c-.27-.45-.763-.729-1.287-.729h-2.867c-.276 0-.5-.224-.5-.5s.224-.5.5-.5h2.867c.873 0 1.695.465 2.145 1.213l1.834 3.058c.27.45.763.729 1.287.729 1.305 0 2.367 1.062 2.367 2.368v2.132c0 .827-.673 1.5-1.5 1.5z"/></g><g><path d="m17.5 17h-3c-.827 0-1.5-.673-1.5-1.5v-2.132c0-1.306 1.062-2.368 2.367-2.368.523 0 1.017-.279 1.287-.729l1.834-3.057c.45-.749 1.272-1.214 2.145-1.214h2.867c.276 0 .5.224.5.5s-.224.5-.5.5h-2.867c-.523 0-1.017.279-1.287.729l-1.834 3.057c-.45.749-1.272 1.214-2.145 1.214-.754 0-1.367.614-1.367 1.368v2.132c0 .276.225.5.5.5h3c.276 0 .5.224.5.5s-.224.5-.5.5z"/></g><g><path d="m4.5 19c-1.379 0-2.5-1.122-2.5-2.5s1.121-2.5 2.5-2.5 2.5 1.122 2.5 2.5-1.121 2.5-2.5 2.5zm0-4c-.827 0-1.5.673-1.5 1.5s.673 1.5 1.5 1.5 1.5-.673 1.5-1.5-.673-1.5-1.5-1.5z"/></g><g><path d="m19.5 19c-1.379 0-2.5-1.122-2.5-2.5s1.121-2.5 2.5-2.5 2.5 1.122 2.5 2.5-1.121 2.5-2.5 2.5zm0-4c-.827 0-1.5.673-1.5 1.5s.673 1.5 1.5 1.5 1.5-.673 1.5-1.5-.673-1.5-1.5-1.5z"/></g><g><path d="m23.5 17h-2c-.276 0-.5-.224-.5-.5s.224-.5.5-.5h2c.276 0 .5.224.5.5s-.224.5-.5.5z"/></g><g><path d="m2.5 17h-2c-.276 0-.5-.224-.5-.5s.224-.5.5-.5h2c.276 0 .5.224.5.5s-.224.5-.5.5z"/></g><g><path d="m3.5 12h-3c-.276 0-.5-.224-.5-.5s.224-.5.5-.5h3c.276 0 .5.224.5.5s-.224.5-.5.5z"/></g><g><path d="m23.5 12h-3c-.276 0-.5-.224-.5-.5s.224-.5.5-.5h3c.276 0 .5.224.5.5s-.224.5-.5.5z"/></g><g><path d="m12 8c-.276 0-.5-.224-.5-.5v-2c0-.276.224-.5.5-.5s.5.224.5.5v2c0 .276-.224.5-.5.5z"/></g><g><path d="m14.5 9c-.128 0-.256-.049-.354-.146-.195-.195-.195-.512 0-.707l1-1c.195-.195.512-.195.707 0s.195.512 0 .707l-1 1c-.097.097-.225.146-.353.146z"/></g><g><path d="m9.5 9c-.128 0-.256-.049-.354-.146l-1-1c-.195-.195-.195-.512 0-.707s.512-.195.707 0l1 1c.195.195.195.512 0 .707-.097.097-.225.146-.353.146z"/></g></svg>
