<svg xmlns="http://www.w3.org/2000/svg" xmlns:xlink="http://www.w3.org/1999/xlink" viewBox="0 0 117.6 119.05"><defs><style>.cls-1{fill:#95a63a;}.cls-2{clip-path:url(#clip-path);}.cls-3{fill:#331b19;}.cls-4{fill:#d84b58;}.cls-5{fill:#dda778;}.cls-6{fill:#f9bb8d;}</style><clipPath id="clip-path"><path class="cls-1" d="M117.6,58.8A58.8,58.8,0,1,1,58.8,0,58.81,58.81,0,0,1,117.6,58.8Z"/></clipPath></defs><title>Element 5</title><g id="Ebene_2" data-name="Ebene 2"><g id="Capa_1" data-name="Capa 1"><path class="cls-1" d="M117.6,58.8A58.8,58.8,0,1,1,58.8,0,58.81,58.81,0,0,1,117.6,58.8Z"/><g class="cls-2"><path class="cls-3" d="M84,36.58c-3.13,1,.36,13.46,4,8.47.23,1.84-.66,3.75-2.69,3.66-.49,2.09,2.61,1.7,2.67,4.15s-2.21,2.21-2.22,4.44a3.15,3.15,0,0,0,4.2,2.78c2.29-.82,2.46-2.8,3-4.54a6.18,6.18,0,0,1,.27,6.16c1.45.18,2.2-1.12,2.25-2.4a4,4,0,0,1-.27,4.13c.56-.12,1.33.17,1.9.08.37,2.15-1.46,4.56-3.16,5.82s-5.52,1.06-2.48,3.58c2.24,1.86,4.13.79,4.2,4.38,0,2.57-1.17,5-3.9,4.89a.82.82,0,0,0-.19-.43c2,2.28,1.44,6-.61,8,.41-1.34.63-3.25-.68-4.08.18,1,0,2.11-1,2.49.42,4.82-8.65,5.07-11.89,5.38-2.46.24-4.72,1.25-7.15,1.49a47.24,47.24,0,0,1-7.12-.3c-.22-10-5.54-19-9.11-28.15-1.61-4.13.77-6.6,3.7-9.81,4.23-4.63,8.84-8.63,12.53-13.56Z"/><path class="cls-3" d="M32.38,36.58c3.12,1-.37,13.46-4,8.47-.23,1.84.65,3.75,2.69,3.66.49,2.09-2.61,1.7-2.68,4.15s2.21,2.21,2.22,4.44a3.14,3.14,0,0,1-4.19,2.78c-2.29-.82-2.47-2.8-3-4.54a6.18,6.18,0,0,0-.28,6.16c-1.44.18-2.19-1.12-2.25-2.4a4,4,0,0,0,.28,4.13c-.56-.12-1.34.17-1.91.08-.36,2.15,1.47,4.56,3.16,5.82S28,70.39,25,72.91c-2.24,1.86-4.13.79-4.21,4.38-.05,2.57,1.18,5,3.91,4.89a.81.81,0,0,1,.18-.43c-2,2.28-1.44,6,.62,8-.42-1.34-.63-3.25.67-4.08-.17,1,0,2.11,1,2.49C26.74,93,35.8,93.26,39,93.57c2.46.24,4.73,1.25,7.16,1.49a47.11,47.11,0,0,0,7.11-.3c.23-10,5.54-19,9.11-28.15,1.62-4.13-.76-6.6-3.7-9.81-4.23-4.63-8.83-8.63-12.52-13.56Z"/><path class="cls-4" d="M90.69,93.18C87,88.57,57.75,78.46,57.75,78.46S29.12,89.64,24.81,93.18s-5.93,25.87-5.93,25.87H95.77S94.39,97.78,90.69,93.18Z"/><path class="cls-5" d="M66.82,83.85s-1.12,5.43-9.06,5.43-9.06-5.43-9.06-5.43a12,12,0,0,0,0-9.54c-2.21-5.15,20.82-6.19,18.12,0S66.82,83.85,66.82,83.85Z"/><path class="cls-3" d="M76.67,63.5c.57-7.73,5.48-18.87,5.48-18.87,7-15.6-4.22-38.4-13.78-31.89C58.12-.92,23.75,14.37,34.1,44.42c0,0,4.25,10.36,4.66,18s14.15,15,18.57,15.24S76.09,71.23,76.67,63.5Z"/><path class="cls-6" d="M83.36,49.1c0,4.08-2.9,9.7-4.86,9.7S75,55.49,75,51.4A8.76,8.76,0,0,1,78.5,44C80.4,42.52,83.36,44,83.36,49.1Z"/><path class="cls-6" d="M32.73,49.1c0,4.08,2.9,9.7,4.85,9.7s3.54-3.31,3.54-7.4A8.76,8.76,0,0,0,37.58,44C35.69,42.52,32.73,44,32.73,49.1Z"/><path class="cls-6" d="M58.12,16.69c-13.73,0-19.8,9.62-19.8,24v18c0,12.49,14.44,23.19,19,23.19s20.6-12.5,20.6-24.35V40.66C77.93,26.31,71.86,16.69,58.12,16.69Z"/><path class="cls-3" d="M77.93,50.91l.58-7.46c3-14.51-6.53-28.54-20.26-28.54S33.88,30.22,37.55,44.73l.77,8.48A10.17,10.17,0,0,0,41.43,47c.61-5.35,4.49-10.57,12-12,11.85-2.26,15.18-9.36,15.18-9.36a57.39,57.39,0,0,1,5,9.36c1.6,3.74,0,6,1.39,9.77A32.15,32.15,0,0,0,77.93,50.91Z"/></g></g></g></svg>