<svg xmlns="http://www.w3.org/2000/svg" xmlns:xlink="http://www.w3.org/1999/xlink" viewBox="0 0 117.6 119.05"><defs><style>.cls-1{fill:#f7daa2;}.cls-2{clip-path:url(#clip-path);}.cls-3{fill:#293033;}.cls-4{fill:#dda778;}.cls-5{fill:#442928;}.cls-6{fill:#f9bb8d;}</style><clipPath id="clip-path"><path class="cls-1" d="M117.6,58.8A58.8,58.8,0,1,1,58.8,0,58.8,58.8,0,0,1,117.6,58.8Z"/></clipPath></defs><title>Element 4</title><g id="Ebene_2" data-name="Ebene 2"><g id="Capa_1" data-name="Capa 1"><path class="cls-1" d="M117.6,58.8A58.8,58.8,0,1,1,58.8,0,58.8,58.8,0,0,1,117.6,58.8Z"/><g class="cls-2"><path class="cls-3" d="M91.37,93.18c-3.7-4.61-32.95-14.72-32.95-14.72S29.79,89.64,25.48,93.18s-5.92,25.87-5.92,25.87H96.45S95.06,97.78,91.37,93.18Z"/><path class="cls-4" d="M67.49,83.86s-1.12,5.42-9.06,5.42-9-5.42-9-5.42a12.12,12.12,0,0,0,0-9.55c-2.21-5.15,20.81-6.19,18.11,0S67.49,83.86,67.49,83.86Z"/><path class="cls-5" d="M77.34,63.5c.58-7.73,5.49-18.87,5.49-18.87C89.8,29,82.56,5.51,69,12.74,52.3-2.55,25.82,18.83,34.78,44.42c0,0,4.25,10.36,4.66,18S53.59,85.36,58,85.61,76.77,71.23,77.34,63.5Z"/><path class="cls-6" d="M84,49.1c0,4.08-2.9,9.7-4.85,9.7s-3.54-3.31-3.54-7.4A8.76,8.76,0,0,1,79.18,44C81.07,42.52,84,44,84,49.1Z"/><path class="cls-6" d="M33.41,49.1c0,4.08,2.89,9.7,4.85,9.7s3.53-3.31,3.53-7.4A8.76,8.76,0,0,0,38.26,44C36.37,42.52,33.41,44,33.41,49.1Z"/><path class="cls-6" d="M58.8,16.69c-13.73,0-19.8,9.62-19.8,24v18c0,12.5,14.44,23.19,19,23.19s20.6-12.5,20.6-24.34V40.67C78.6,26.31,72.53,16.69,58.8,16.69Z"/><path class="cls-5" d="M78.6,50.91l1.24-10.47c0-14.36-7.31-25-21-25S37.6,27.62,37.6,42L39,53.21A7.66,7.66,0,0,0,42.1,47c-.33-9.21,4.5-10.57,12-12C66,32.69,69.28,25.59,69.28,25.59s3.88,1.31,6.36,7.1c1.61,3.74-.49,7.81-.62,10.15S78.6,50.91,78.6,50.91Z"/><path class="cls-5" d="M60.09,74.33a15.62,15.62,0,0,1-4.17,0c2.22,3.41,0,8.25,0,8.25h4.17A11.17,11.17,0,0,1,60.09,74.33Z"/></g></g></g></svg>