<svg xmlns="http://www.w3.org/2000/svg" xmlns:xlink="http://www.w3.org/1999/xlink" viewBox="0 0 117.6 119.05"><defs><style>.cls-1{fill:#ae9dcc;}.cls-2{clip-path:url(#clip-path);}.cls-3{fill:#432918;}.cls-4{fill:#6e7aba;}.cls-5{fill:#dda778;}.cls-6{fill:#f9bb8d;}.cls-7{fill:#ac0f09;}</style><clipPath id="clip-path"><path class="cls-1" d="M117.6,58.8A58.8,58.8,0,1,1,58.8,0,58.81,58.81,0,0,1,117.6,58.8Z"/></clipPath></defs><title>Element 1</title><g id="Ebene_2" data-name="Ebene 2"><g id="Capa_1" data-name="Capa 1"><path class="cls-1" d="M117.6,58.8A58.8,58.8,0,1,1,58.8,0,58.81,58.81,0,0,1,117.6,58.8Z"/><g class="cls-2"><path class="cls-3" d="M31.08,78.46C36,89.59,76.52,90.72,82.3,79.67c-6.79-4.63-1.43-22.1-1.43-22.1L82.7,44.63C86.82,28.09,72.57,3.26,58.48,12c-8.24-8.16-28.65,9.29-23.83,32.4L34.74,55S38.87,74.54,31.08,78.46Z"/><path class="cls-4" d="M91.24,93.18C87.55,88.57,58.3,78.46,58.3,78.46S29.66,89.64,25.35,93.18s-5.92,25.87-5.92,25.87H96.32S94.93,97.78,91.24,93.18Z"/><path class="cls-5" d="M67.36,83.85s-1.12,5.43-9.06,5.43-9-5.43-9-5.43a12,12,0,0,0,0-9.54c-2.21-5.15,20.82-6.19,18.11,0S67.36,83.85,67.36,83.85Z"/><path class="cls-6" d="M83.9,49.09c0,4.09-2.9,9.71-4.85,9.71s-3.54-3.31-3.54-7.4A8.76,8.76,0,0,1,79.05,44C80.94,42.52,83.9,44,83.9,49.09Z"/><path class="cls-6" d="M33.28,49.09c0,4.09,2.9,9.71,4.85,9.71s3.54-3.31,3.54-7.4A8.76,8.76,0,0,0,38.13,44C36.24,42.52,33.28,44,33.28,49.09Z"/><path class="cls-6" d="M58.67,16.69c-13.73,0-19.8,9.62-19.8,24v18c0,12.49,14.44,23.19,19,23.19s20.59-12.5,20.59-24.35V40.66C78.47,26.31,72.4,16.69,58.67,16.69Z"/><path class="cls-3" d="M78.47,50.9l.58-7.45c3-14.51-6.52-28.54-20.25-28.54S34.42,30.22,38.1,44.73l.77,8.48A10.13,10.13,0,0,0,42,47s15.45-7.85,16.37-22.41c4.92,12.3,17.4,21.24,17.4,21.24C76.39,50,78.47,50.9,78.47,50.9Z"/><path class="cls-7" d="M48.25,42.11c-5.31,0-8.63,2-8.63,4.07,0,3.33,1.21,8.74,6.49,9.37,5.1.62,11.77-1.23,11.77-9.74C57.88,43.83,53.57,42.11,48.25,42.11ZM46.49,54.59c-4.52-.54-5.56-5.17-5.56-8,0-1.8,2.85-3.49,7.4-3.49s8.23,1.48,8.23,3.17C56.56,53.54,50.86,55.12,46.49,54.59Z"/><path class="cls-7" d="M61.21,48a1.83,1.83,0,0,0-2-1.3c-1.2,0-1.5,1.42-1.5,1.42l-.64-3.75a3.24,3.24,0,0,0,1.46.76,5.68,5.68,0,0,0,1.61,0,2.38,2.38,0,0,0,1.08-.76Z"/><path class="cls-7" d="M40.36,50s-1.91-.14-1.91-1.12v-3c0-1.54,1.91-1,1.91-1Z"/><path class="cls-7" d="M60.35,45.81c0,8.51,6.66,10.36,11.77,9.74,5.27-.63,6.49-6,6.49-9.37,0-2.1-3.32-4.07-8.64-4.07S60.35,43.83,60.35,45.81Zm1.32.44c0-1.69,3.68-3.17,8.23-3.17s7.39,1.69,7.39,3.49c0,2.85-1,7.48-5.55,8S61.67,53.54,61.67,46.25Z"/><path class="cls-7" d="M77.87,50s1.91-.14,1.91-1.12v-3c0-1.54-1.91-1-1.91-1Z"/></g></g></g></svg>