<svg xmlns="http://www.w3.org/2000/svg" xmlns:xlink="http://www.w3.org/1999/xlink" viewBox="0 0 117.6 119.05"><defs><style>.cls-1{fill:#ae9dcc;}.cls-2{clip-path:url(#clip-path);}.cls-3{fill:#e6332a;}.cls-4{fill:#153c37;}.cls-5{fill:#dda778;}.cls-6{fill:#f9bb8d;}</style><clipPath id="clip-path"><path class="cls-1" d="M117.6,58.8A58.8,58.8,0,1,1,58.8,0,58.81,58.81,0,0,1,117.6,58.8Z"/></clipPath></defs><title>Element 2</title><g id="Ebene_2" data-name="Ebene 2"><g id="Capa_1" data-name="Capa 1"><path class="cls-1" d="M117.6,58.8A58.8,58.8,0,1,1,58.8,0,58.81,58.81,0,0,1,117.6,58.8Z"/><g class="cls-2"><path class="cls-3" d="M81.18,64.39c.57-7.73,1.52-19.76,1.52-19.76,7-15.6-4.23-38.4-13.79-31.89C58.67-.92,24.29,14.37,34.65,44.42a95.63,95.63,0,0,1-1.37,19.41c-2.59,13.35-7.27,27.76-3,31.07,6.09,4.65,50.85,5.17,53.57,1.69C88.32,91,80.6,72.12,81.18,64.39Z"/><path class="cls-4" d="M91.24,93.18C87.55,88.57,58.3,78.45,58.3,78.45S29.66,89.64,25.35,93.18s-5.92,25.87-5.92,25.87H96.32S94.93,97.78,91.24,93.18Z"/><path class="cls-5" d="M67.36,83.85s-1.11,5.43-9.06,5.43-9-5.43-9-5.43a12,12,0,0,0,0-9.54c-2.21-5.15,20.82-6.19,18.11,0S67.36,83.85,67.36,83.85Z"/><path class="cls-6" d="M83.9,49.09c0,4.09-2.9,9.71-4.85,9.71s-3.54-3.31-3.54-7.4A8.76,8.76,0,0,1,79.05,44C80.94,42.52,83.9,44,83.9,49.09Z"/><path class="cls-6" d="M33.28,49.09c0,4.09,2.9,9.71,4.85,9.71s3.54-3.31,3.54-7.4A8.76,8.76,0,0,0,38.13,44C36.24,42.52,33.28,44,33.28,49.09Z"/><path class="cls-6" d="M58.67,16.69c-13.73,0-19.8,9.62-19.8,24v18c0,12.5,14.44,23.2,19,23.2S78.47,69.32,78.47,57.48V40.66C78.47,26.31,72.4,16.69,58.67,16.69Z"/><path class="cls-3" d="M78.47,50.9l.58-7.45c3-14.51-6.52-28.54-20.25-28.54S34.42,30.22,38.1,44.73l.77,8.48A10.13,10.13,0,0,0,42,47c.36-3.08,1.54-15.52,1.54-15.52L45,38.78l16.56,1.09,2.84-5.81,1.13,6.07,5.27.35,3.39-10.17s.47,8.83,1.53,15.48C76.39,50,78.47,50.9,78.47,50.9Z"/></g></g></g></svg>