<svg width="638" height="694" version="1.0" xmlns="http://www.w3.org/2000/svg"><g transform="translate(5.75 609)"><g transform="translate(35.4 35.4)"><path d="m278 46c-174 0-315-141-315-315 0-130 78.9-242 191-290l-1.77-65s-0.313-16.5 16.5-16.5h219c16.8 0 16.5 16.5 16.5 16.5l-1.77 65c112 48.3 191 160 191 290 0 174-141 315-315 315" fill="#fff"/><path d="m278 46c-174 0-315-141-315-315 0-130 78.9-242 191-290l-1.77-65s-0.313-16.5 16.5-16.5h219c16.8 0 16.5 16.5 16.5 16.5l-1.77 65c112 48.3 191 160 191 290 0 174-141 315-315 315z" fill="none" stroke="#003f8a" stroke-width="6.96"/><path d="m278-387c101-33.5 101-124 101-124l3.13-106h-209l3.13 106s0.0696 90.6 101 124" fill="#e2001a"/><path d="m207-533h49.8v-49.4h40.6v49.4h49.8v40.6h-49.8v49.4h-40.6v-49.4h-49.8z" fill="#fff"/><g fill="#003f8a"><path d="m306-218c-8.33 5.24-18 8-27.9 8-9.45 0-18.9-2.7-27.2-7.78l-0.661-0.418-193 97 0.139-0.0696c-0.348 0.122-3.25 1.27-4.14 3.6-0.418 1.11-0.331 2.3 0.261 3.45l0.0348 0.0696 0.0522 0.0696c50.6 74.1 134 119 224 120 90-1.32 174-46.3 224-120l0.0522-0.0696 0.0348-0.0696c0.609-1.15 0.696-2.33 0.261-3.45-0.887-2.33-3.81-3.48-4.14-3.6l0.157 0.0696-192-96.9-0.713-0.348z"/><path d="m515-148c2.23 1.3 7.52 2.11 11.6-4.05l0.104-0.174c17.7-37.2 26.7-77 26.7-118 0-103-58.3-197-152-244l-2.04-1.03v3.13c0 0.94-1.44 94.4-99.3 139l-0.87 0.4 0.0522 0.957 3.29 63.2 0.0522 0.783 0.679 0.383c16.7 9.05 27 26.7 27 46 0 0.574-0.0348 1.08-0.0697 1.64l-0.0522 0.887-0.0522 0.853c0-0.0174 0.731 0.418 0.731 0.418s184 110 184 110"/><path d="m225-260c-0.0522-0.905-0.0696-1.91-0.0696-2.89 0-19 10.4-36.6 27.2-45.8l0.679-0.365 0.0348-0.783 3.13-63.4 0.0522-0.957-0.87-0.383c-97.8-44.7-99.3-138-99.3-139v-3.11l-2.04 1.03c-93.8 47.3-152 141-152 244 0 41.3 9 81.2 26.7 118l0.0348 0.087 0.0696 0.087c4.05 6.16 9.34 5.34 11.6 4.05 0.0174-0.0174 184-110 184-110l0.731-0.418z"/></g><g fill="#fff"><path d="m506-337c-4.35-35.7-26.5-54.7-64.2-54.9-21.1 0-39 6.8-51.9 19.7-13.4 13.4-20.5 32.5-20.5 55.2 0 22.3 7.36 41.9 20.7 55.2 12.8 12.8 30.7 19.6 51.7 19.6 41.5 0 64.3-29.5 65-57.7h-41.5c-2.23 10.7-7.38 24.3-24.8 24.3-7.38 0-13.5-2.42-18.3-7.19-9.41-9.41-10.8-25.4-10.8-34.2 0-25.9 10.9-41.4 29.1-41.4 18.5 0 23.4 15.1 24.6 21.4z"/><path d="m259-70.3c0.139 3.15 0.679 6.12 1.67 8.68 2.84 7.64 10.5 11.5 22.7 11.5 3.29 0 11.5-0.522 16.3-5.36 2.44-2.42 3.65-5.55 3.65-9.29 0-8.84-7.5-11-32.4-18.1l-2.47-0.696c-22.5-6.33-45.8-12.9-45.8-40.1 0-12.5 4.04-22.9 12-30.8 10.1-10.1 26.6-15.9 45.3-15.9 21.3 0 57 5.88 59.2 44.7h-39.4c0.191-4.68-1.86-8.6-6.06-11.4-3.41-2.47-8.54-3.91-14-3.91-4.11 0-17.5 0.818-17.5 11.2 0.731 9.31 14.4 12.6 30.3 16.4 4.23 1.03 8.6 2.07 13 3.29 19.7 5.48 39.9 14.6 39.9 40.6 0 45.2-50.4 48.7-65.9 48.7-10.3 0-61.1-2.44-62.5-49.6z"/><path d="m150-246v-108h40.8v-34.5h-124v34.5h40.8v108z"/></g></g></g></svg>
