<?xml version="1.0" encoding="UTF-8" standalone="no"?>
<svg
   xmlns:dc="http://purl.org/dc/elements/1.1/"
   xmlns:cc="http://creativecommons.org/ns#"
   xmlns:rdf="http://www.w3.org/1999/02/22-rdf-syntax-ns#"
   xmlns:svg="http://www.w3.org/2000/svg"
   xmlns="http://www.w3.org/2000/svg"
   viewBox="0 0 289.33426 59.042664"
   height="59.042664"
   width="289.33426"
   xml:space="preserve"
   id="svg106"
   version="1.1"><metadata
     id="metadata112"><rdf:RDF><cc:Work
         rdf:about=""><dc:format>image/svg+xml</dc:format><dc:type
           rdf:resource="http://purl.org/dc/dcmitype/StillImage" /><dc:title></dc:title></cc:Work></rdf:RDF></metadata><defs
     id="defs110"><clipPath
       id="clipPath122"
       clipPathUnits="userSpaceOnUse"><path
         id="path120"
         d="M 0,0 H 396.85 V 141.732 H 0 Z" /></clipPath></defs><g
     transform="matrix(1.3333333,0,0,-1.3333333,-112.44093,126.24786)"
     id="g114"><g
       id="g116"><g
         clip-path="url(#clipPath122)"
         id="g118"><g
           transform="translate(88.8234,57.4439)"
           id="g124"><path
             id="path126"
             style="fill:#231f20;fill-opacity:1;fill-rule:nonzero;stroke:none"
             d="m 0,0 1.584,-3.729 h -3.168 z m -2.915,-6.875 1.056,2.497 H 1.859 L 2.915,-6.875 H 3.718 L 0.462,0.693 h -0.913 l -3.256,-7.568 z m 16.005,0 v 5.83 h -0.704 v -4.576 c -0.44,-0.297 -1.199,-0.693 -1.991,-0.693 -0.913,0 -1.562,0.517 -1.562,1.65 v 3.619 H 8.129 v -3.74 c 0,-1.496 0.836,-2.2 2.057,-2.2 0.99,0 1.738,0.462 2.244,0.869 v -0.759 z m 8.481,0.253 v 0.638 c -0.275,-0.187 -0.693,-0.352 -1.177,-0.352 -0.66,0 -1.045,0.308 -1.045,1.056 v 3.608 h 2.167 v 0.627 h -2.167 v 1.1 h -0.176 l -1.43,-1.54 v -0.187 h 0.902 v -3.663 c 0,-1.331 0.803,-1.65 1.617,-1.65 0.605,0 1.045,0.187 1.309,0.363 m 7.447,-0.363 c -1.727,0 -2.981,1.309 -2.981,3.025 0,1.727 1.254,3.025 2.981,3.025 1.727,0 2.981,-1.298 2.981,-3.025 0,-1.716 -1.254,-3.025 -2.981,-3.025 m 0,0.66 c 1.331,0 2.277,1.023 2.277,2.365 0,1.353 -0.946,2.365 -2.277,2.365 -1.32,0 -2.277,-1.012 -2.277,-2.365 0,-1.342 0.957,-2.365 2.277,-2.365 m 10.516,4.719 c 0.847,0 1.452,-0.506 1.452,-1.595 v -3.674 h 0.693 v 3.883 c 0,0.253 -0.022,0.473 -0.077,0.682 0.462,0.319 1.188,0.704 1.969,0.704 0.836,0 1.441,-0.506 1.441,-1.595 v -3.674 h 0.704 v 3.795 c 0,1.452 -0.781,2.145 -1.936,2.145 -1.034,0 -1.804,-0.506 -2.321,-0.957 -0.319,0.638 -0.924,0.957 -1.716,0.957 -0.946,0 -1.639,-0.473 -2.134,-0.858 v 0.748 h -0.66 v -5.83 h 0.704 v 4.587 c 0.429,0.286 1.133,0.682 1.881,0.682 m 14.058,-5.379 c -1.727,0 -2.981,1.309 -2.981,3.025 0,1.727 1.254,3.025 2.981,3.025 1.727,0 2.981,-1.298 2.981,-3.025 0,-1.716 -1.254,-3.025 -2.981,-3.025 m 0,0.66 c 1.331,0 2.277,1.023 2.277,2.365 0,1.353 -0.946,2.365 -2.277,2.365 -1.32,0 -2.277,-1.012 -2.277,-2.365 0,-1.342 0.957,-2.365 2.277,-2.365 m 8.635,7.161 -0.704,-0.143 v -7.238 c 0.583,-0.22 1.298,-0.44 2.244,-0.44 1.617,0 2.915,1.056 2.915,3.146 0,1.837 -1.056,2.904 -2.53,2.904 -0.836,0 -1.54,-0.374 -1.925,-0.682 z m 1.518,-7.183 c -0.605,0 -1.089,0.121 -1.518,0.253 v 3.872 c 0.374,0.297 1.001,0.638 1.782,0.638 1.166,0 1.947,-0.869 1.947,-2.288 0,-1.672 -0.902,-2.475 -2.211,-2.475 m 7.898,-0.528 h 0.704 v 5.83 h -0.704 z m 0.352,6.765 c 0.33,0 0.561,0.198 0.561,0.484 0,0.286 -0.231,0.484 -0.561,0.484 -0.319,0 -0.55,-0.198 -0.55,-0.484 0,-0.286 0.231,-0.484 0.55,-0.484 m 5.621,0.803 v -7.568 h 0.704 v 7.711 z m 10.681,-7.216 v 0.649 c -0.407,-0.264 -1.254,-0.44 -1.991,-0.44 -1.287,0 -2.244,0.671 -2.321,2.101 h 4.466 v 0.341 c 0,1.892 -0.902,2.948 -2.486,2.948 -1.562,0 -2.695,-1.1 -2.695,-3.036 0,-2.002 1.265,-3.025 2.981,-3.025 0.737,0 1.606,0.165 2.046,0.462 m -2.354,4.972 c 1.155,0 1.782,-0.759 1.815,-2.145 h -3.773 c 0.044,1.386 0.858,2.145 1.958,2.145 m 14.827,-5.324 h 0.924 l 2.288,6.699 2.288,-6.699 h 0.913 l 2.123,7.568 h -0.847 l -1.749,-6.732 -2.299,6.732 h -0.858 l -2.31,-6.743 -1.749,6.743 h -0.847 z m 15.851,-0.11 c -1.727,0 -2.981,1.309 -2.981,3.025 0,1.727 1.254,3.025 2.981,3.025 1.727,0 2.981,-1.298 2.981,-3.025 0,-1.716 -1.254,-3.025 -2.981,-3.025 m 0,0.66 c 1.331,0 2.277,1.023 2.277,2.365 0,1.353 -0.946,2.365 -2.277,2.365 -1.32,0 -2.277,-1.012 -2.277,-2.365 0,-1.342 0.957,-2.365 2.277,-2.365 m 10.626,4.719 c 0.913,0 1.562,-0.517 1.562,-1.65 v -3.619 h 0.693 v 3.74 c 0,1.496 -0.836,2.2 -2.046,2.2 -0.968,0 -1.694,-0.429 -2.2,-0.825 v 2.596 l -0.704,-0.143 v -7.568 h 0.704 v 4.587 c 0.451,0.286 1.199,0.682 1.991,0.682 m 7.469,2.299 v -7.568 h 0.704 v 7.711 z m 10.681,-7.216 v 0.649 c -0.407,-0.264 -1.254,-0.44 -1.991,-0.44 -1.287,0 -2.244,0.671 -2.321,2.101 h 4.466 v 0.341 c 0,1.892 -0.902,2.948 -2.486,2.948 -1.562,0 -2.695,-1.1 -2.695,-3.036 0,-2.002 1.265,-3.025 2.981,-3.025 0.737,0 1.606,0.165 2.046,0.462 m -2.354,4.972 c 1.155,0 1.782,-0.759 1.815,-2.145 h -3.773 c 0.044,1.386 0.858,2.145 1.958,2.145 m 10.197,-0.055 c 0.913,0 1.562,-0.517 1.562,-1.65 v -3.619 h 0.693 v 3.74 c 0,1.496 -0.836,2.2 -2.046,2.2 -1.001,0 -1.738,-0.462 -2.244,-0.869 v 0.759 h -0.66 v -5.83 h 0.704 v 4.587 c 0.451,0.286 1.199,0.682 1.991,0.682 m 9.933,-2.266 -0.825,0.253 c -0.781,0.242 -1.331,0.473 -1.331,1.122 0,0.627 0.627,0.946 1.331,0.946 0.803,0 1.628,-0.33 2.057,-0.649 v 0.737 c -0.429,0.275 -1.21,0.539 -2.035,0.539 -1.265,0 -2.035,-0.704 -2.035,-1.595 0,-0.979 0.704,-1.386 1.518,-1.617 l 0.891,-0.264 c 0.77,-0.231 1.254,-0.44 1.254,-1.078 0,-0.693 -0.517,-0.935 -1.32,-0.935 -0.913,0 -1.837,0.374 -2.354,0.715 v -0.726 c 0.473,-0.286 1.375,-0.616 2.343,-0.616 1.254,0 2.002,0.55 2.002,1.584 0,0.902 -0.649,1.331 -1.496,1.584 m 11.033,-2.651 v 0.649 c -0.407,-0.264 -1.254,-0.44 -1.991,-0.44 -1.287,0 -2.244,0.671 -2.321,2.101 h 4.466 v 0.341 c 0,1.892 -0.902,2.948 -2.486,2.948 -1.562,0 -2.695,-1.1 -2.695,-3.036 0,-2.002 1.265,-3.025 2.981,-3.025 0.737,0 1.606,0.165 2.046,0.462 m -2.354,4.972 c 1.155,0 1.782,-0.759 1.815,-2.145 h -3.773 c 0.044,1.386 0.858,2.145 1.958,2.145 m 12.221,-4.972 v 0.649 c -0.407,-0.264 -1.254,-0.44 -1.991,-0.44 -1.287,0 -2.244,0.671 -2.321,2.101 h 4.466 v 0.341 c 0,1.892 -0.902,2.948 -2.486,2.948 -1.562,0 -2.695,-1.1 -2.695,-3.036 0,-2.002 1.265,-3.025 2.981,-3.025 0.737,0 1.606,0.165 2.046,0.462 m -2.354,4.972 c 1.155,0 1.782,-0.759 1.815,-2.145 h -3.773 c 0.044,1.386 0.858,2.145 1.958,2.145 M 197.966,0 199.55,-3.729 h -3.168 z m -2.915,-6.875 1.056,2.497 h 3.718 l 1.056,-2.497 h 0.803 l -3.256,7.568 h -0.913 l -3.256,-7.568 z m 14.839,0.572 c -1.914,0 -3.245,1.309 -3.245,3.201 0,1.903 1.331,3.223 3.245,3.223 1.111,0 1.98,-0.396 2.618,-0.836 v 0.781 c -0.682,0.429 -1.54,0.737 -2.64,0.737 -2.31,0 -3.982,-1.606 -3.982,-3.905 0,-2.288 1.672,-3.894 4.004,-3.894 1.111,0 1.936,0.308 2.618,0.737 v 3.443 h -3.432 v -0.627 h 2.706 v -2.442 c -0.528,-0.253 -1.155,-0.418 -1.892,-0.418" /></g><g
           transform="translate(197.7296,86.6219)"
           id="g128"><path
             id="path130"
             style="fill:#231f20;fill-opacity:1;fill-rule:nonzero;stroke:none"
             d="M 0,0 C 2.772,0 4.752,-1.656 4.752,-5.22 V -17.244 H 7.02 v 12.708 c 0,0.828 -0.072,1.548 -0.252,2.232 C 8.28,-1.26 10.656,0 13.212,0 c 2.736,0 4.716,-1.656 4.716,-5.22 v -12.024 h 2.304 v 12.42 c 0,4.752 -2.556,7.02 -6.336,7.02 C 10.512,2.196 7.992,0.54 6.3,-0.936 5.256,1.152 3.276,2.196 0.684,2.196 -2.412,2.196 -4.68,0.648 -6.3,-0.612 v 2.448 h -2.16 v -19.08 h 2.304 V -2.232 C -4.752,-1.296 -2.448,0 0,0 m 34.488,-17.604 c -5.652,0 -9.756,4.284 -9.756,9.9 0,5.652 4.104,9.9 9.756,9.9 5.652,0 9.756,-4.248 9.756,-9.9 0,-5.616 -4.104,-9.9 -9.756,-9.9 m 0,2.16 c 4.356,0 7.452,3.348 7.452,7.74 0,4.428 -3.096,7.74 -7.452,7.74 -4.32,0 -7.452,-3.312 -7.452,-7.74 0,-4.392 3.132,-7.74 7.452,-7.74 M 51.228,7.992 48.924,7.524 v -23.688 c 1.908,-0.72 4.248,-1.44 7.344,-1.44 5.292,0 9.54,3.456 9.54,10.296 0,6.012 -3.456,9.504 -8.28,9.504 -2.736,0 -5.04,-1.224 -6.3,-2.232 z m 4.968,-23.508 c -1.98,0 -3.564,0.396 -4.968,0.828 v 12.672 c 1.224,0.972 3.276,2.088 5.832,2.088 3.816,0 6.372,-2.844 6.372,-7.488 0,-5.472 -2.952,-8.1 -7.236,-8.1 m 14.328,-1.728 h 2.304 v 19.08 h -2.304 z m 1.152,22.14 c 1.08,0 1.836,0.648 1.836,1.584 0,0.936 -0.756,1.584 -1.836,1.584 -1.044,0 -1.8,-0.648 -1.8,-1.584 0,-0.936 0.756,-1.584 1.8,-1.584 m 6.876,2.628 v -24.768 h 2.304 V 7.992 Z m 23.435,-23.616 v 2.124 c -1.332,-0.864 -4.104,-1.44 -6.516,-1.44 -4.212,0 -7.344,2.196 -7.596,6.876 h 14.616 v 1.116 c 0,6.192 -2.952,9.648 -8.136,9.648 -5.112,0 -8.82,-3.6 -8.82,-9.936 0,-6.552 4.14,-9.9 9.756,-9.9 2.412,0 5.256,0.54 6.696,1.512 M 94.283,0.18 c 3.78,0 5.832,-2.484 5.94,-7.02 H 87.875 c 0.144,4.536 2.808,7.02 6.408,7.02" /></g><g
           transform="translate(97.7227,89.5379)"
           id="g132"><path
             id="path134"
             style="fill:#7b7979;fill-opacity:1;fill-rule:nonzero;stroke:none"
             d="M 0,0 3.744,-9.468 H -3.78 Z m -8.028,-20.16 2.52,6.336 h 10.98 l 2.484,-6.336 h 5.436 L 3.276,4.608 H -3.276 L -13.392,-20.16 Z m 45,24.768 h -5.184 v -14.58 c 0,-3.672 -1.764,-5.652 -5.472,-5.652 -3.672,0 -5.436,1.98 -5.436,5.652 V 4.608 H 15.696 V -9.9 c 0,-6.336 3.204,-10.62 10.62,-10.62 7.452,0 10.656,4.284 10.656,10.62 z M 39.635,0 h 7.812 v -20.16 h 4.896 V 0 h 7.848 V 4.608 H 39.635 Z m 34.992,-20.52 c -7.308,0 -12.744,5.256 -12.744,12.708 0,7.524 5.436,12.78 12.744,12.78 7.272,0 12.672,-5.256 12.672,-12.78 0,-7.452 -5.4,-12.708 -12.672,-12.708 m 0,4.896 c 4.284,0 7.488,3.096 7.488,7.812 0,4.752 -3.204,7.884 -7.488,7.884 -4.32,0 -7.56,-3.132 -7.56,-7.884 0,-4.716 3.276,-7.812 7.56,-7.812" /></g></g></g></g></svg>
