<?xml version="1.0" encoding="UTF-8" standalone="no"?>
<svg
   xmlns:dc="http://purl.org/dc/elements/1.1/"
   xmlns:cc="http://creativecommons.org/ns#"
   xmlns:rdf="http://www.w3.org/1999/02/22-rdf-syntax-ns#"
   xmlns:svg="http://www.w3.org/2000/svg"
   xmlns="http://www.w3.org/2000/svg"
   xmlns:sodipodi="http://sodipodi.sourceforge.net/DTD/sodipodi-0.dtd"
   xmlns:inkscape="http://www.inkscape.org/namespaces/inkscape"
   inkscape:version="1.1-dev (f9311a1, 2019-12-25)"
   sodipodi:docname="auto-abo.svg"
   id="svg109"
   version="1.1"
   viewBox="0 0 696.72046 176.96422"
   height="176.96422pt"
   width="696.72046pt">
  <metadata
     id="metadata115">
    <rdf:RDF>
      <cc:Work
         rdf:about="">
        <dc:format>image/svg+xml</dc:format>
        <dc:type
           rdf:resource="http://purl.org/dc/dcmitype/StillImage" />
        <dc:title></dc:title>
      </cc:Work>
    </rdf:RDF>
  </metadata>
  <defs
     id="defs113" />
  <sodipodi:namedview
     inkscape:current-layer="#ffffffff"
     inkscape:window-maximized="1"
     inkscape:window-y="25"
     inkscape:window-x="0"
     inkscape:cy="92.440002"
     inkscape:cx="481.93333"
     inkscape:zoom="1.0320435"
     fit-margin-bottom="0"
     fit-margin-right="0"
     fit-margin-left="0"
     fit-margin-top="0"
     showgrid="false"
     id="namedview111"
     inkscape:window-height="1387"
     inkscape:window-width="2560"
     inkscape:pageshadow="2"
     inkscape:pageopacity="0"
     guidetolerance="10"
     gridtolerance="10"
     objecttolerance="10"
     borderopacity="1"
     inkscape:document-rotation="0"
     bordercolor="#666666"
     pagecolor="#ffffff" />
  <g
     transform="translate(-52.05,-95.67)"
     id="#ffffffff">
    <path
       inkscape:connector-curvature="0"
       id="path12"
       d="m 92.28,156.42 c 4.95,-13.21 10.51,-26.2 15.6,-39.36 4.74,13.22 10.46,26.07 15.23,39.28 -10.27,-0.02 -20.55,-0.15 -30.83,0.08 z"
       opacity="1.00"
       fill="#ffffff" />
    <path
       inkscape:connector-curvature="0"
       id="path14"
       d="m 413.19,117.2 c 9.9,-1.56 21.01,1.07 27.86,8.73 6.03,5.99 8.85,14.63 8.81,23.01 0.33,9.64 -3.23,19.76 -10.82,25.99 -12.07,10.23 -32,9.36 -42.98,-2.09 -12.27,-13.19 -11.66,-36.67 2.03,-48.66 4.21,-3.78 9.55,-6.04 15.1,-6.98 z"
       opacity="1.00"
       fill="#ffffff" />
    <path
       inkscape:connector-curvature="0"
       id="path16"
       d="m 588.61,136.95 c 6.87,-3.96 14.2,-7.96 22.39,-7.97 8.64,-0.72 17.89,3 22.64,10.45 4.42,6.22 5.61,14.07 5.71,21.54 -0.39,9.21 -2.51,19.38 -9.8,25.7 -7.05,6.59 -17.44,7.93 -26.67,6.78 -4.93,-0.38 -9.66,-1.85 -14.44,-2.98 0,-17.84 -0.33,-35.7 0.17,-53.52 z"
       opacity="1.00"
       fill="#ffffff" />
    <path
       inkscape:connector-curvature="0"
       id="path18"
       d="m 689.57,129.91 c 9.62,-2.12 20.5,-0.34 27.97,6.41 13.82,11.78 14.32,35.21 1.87,48.15 -10.89,11.35 -30.69,12.03 -42.4,1.58 -12.34,-10.71 -14.11,-30.83 -4.94,-44.09 3.97,-6.09 10.49,-10.32 17.5,-12.05 z"
       opacity="1.00"
       fill="#ffffff" />
    <path
       inkscape:connector-curvature="0"
       id="path20"
       d="m 502.7,166.67 c 3.01,-4.28 8.79,-3.51 13.35,-3.57 10.48,0.26 21.02,-0.5 31.45,0.39 -0.26,7.49 0.61,15.14 -0.42,22.52 -6.65,4.04 -14.42,6.11 -22.1,7.06 -7.26,0.77 -15.55,-0.73 -20.48,-6.57 -4.4,-5.41 -5.42,-13.77 -1.8,-19.83 z"
       opacity="1.00"
       fill="#ffffff" />
    <path
       inkscape:connector-curvature="0"
       id="path22"
       d="m 234.42,254.51 c 4.59,-2 10.05,1.63 10.17,6.57 1.09,5.24 -4.26,11.08 -9.6,9 -6.66,-2.05 -6.99,-13.02 -0.57,-15.57 z"
       opacity="1.00"
       fill="#ffffff" />
    <path
       inkscape:connector-curvature="0"
       id="path24"
       d="m 265.5,255.89 c 2.69,-1.63 6.07,-2.6 9.09,-1.24 3.69,2.78 3.67,8.24 2.16,12.18 -1.88,4.35 -7.62,4.36 -11.37,2.67 0.12,-4.54 0.03,-9.08 0.12,-13.61 z"
       opacity="1.00"
       fill="#ffffff" />
    <path
       inkscape:connector-curvature="0"
       id="path26"
       d="m 437.33,254.57 c 4.55,-2.11 10.21,1.43 10.31,6.43 1.15,5.29 -4.13,11.16 -9.57,9.13 -6.53,-2.17 -6.93,-12.72 -0.74,-15.56 z"
       opacity="1.00"
       fill="#ffffff" />
  </g>
  <g
     transform="translate(-52.05,-95.67)"
     id="#3b3c95ff">
    <path
       inkscape:connector-curvature="0"
       id="path29"
       d="m 410.51,96.83 c 15.32,-2.12 31.96,1.51 43.64,12.04 8.45,7.01 13.96,17.17 16.19,27.85 3.12,15.06 0.86,31.71 -8.15,44.43 -7.62,10.95 -19.83,18.3 -32.93,20.54 -12.37,1.87 -25.54,0.69 -36.67,-5.35 -12.63,-6.46 -22.02,-18.66 -25.24,-32.44 -3.6,-14.74 -1.75,-31.15 6.43,-44.08 7.87,-12.81 21.88,-21.25 36.73,-22.99 m 2.68,20.37 c -5.55,0.94 -10.89,3.2 -15.1,6.98 -13.69,11.99 -14.3,35.47 -2.03,48.66 10.98,11.45 30.91,12.32 42.98,2.09 7.59,-6.23 11.15,-16.35 10.82,-25.99 0.04,-8.38 -2.78,-17.02 -8.81,-23.01 -6.85,-7.66 -17.96,-10.29 -27.86,-8.73 z"
       opacity="1.00"
       fill="#3b3c95" />
    <path
       inkscape:connector-curvature="0"
       id="path31"
       d="m 94.07,97.8 c 9.14,-0.06 18.27,0.1 27.41,-0.07 14.13,34.4 28.28,68.8 42.1,103.31 -7.61,-0.2 -15.25,0.3 -22.85,-0.31 -3.33,-8.69 -6.74,-17.35 -10.23,-25.98 -15.23,-0.06 -30.48,-0.27 -45.7,0.11 -3.24,8.75 -7.06,17.27 -10.25,26.03 -7.5,0.18 -15.01,0.19 -22.5,0.02 C 65.81,166.45 80.09,132.18 94.07,97.8 m -1.79,58.62 c 10.28,-0.23 20.56,-0.1 30.83,-0.08 -4.77,-13.21 -10.49,-26.06 -15.23,-39.28 -5.09,13.16 -10.65,26.15 -15.6,39.36 z"
       opacity="1.00"
       fill="#3b3c95" />
    <path
       inkscape:connector-curvature="0"
       id="path33"
       d="m 173.67,97.76 c 7.18,0.06 14.36,0.04 21.54,0.04 0.01,20.74 -0.06,41.49 0.04,62.23 0,4.95 1.69,9.59 3.52,14.1 0.01,0.05 0.01,0.16 0.01,0.21 l 0.16,0.08 c 3.3,2.75 6.57,5.85 10.98,6.66 8.44,1.94 18.57,1.34 25.08,-5.04 4.46,-4.78 5.6,-11.69 5.61,-18.01 -0.04,-20.08 0.09,-40.16 -0.07,-60.23 7.26,0.02 14.53,0.01 21.79,-0.04 0.16,20.08 0.11,40.17 0.03,60.25 0.06,11.32 -2.46,23.39 -10.32,31.97 -8.46,9.44 -21.74,12.83 -34.03,12.44 -12.08,0.35 -25.26,-2.7 -33.72,-11.89 -7.93,-8.35 -10.82,-20.27 -10.71,-31.51 0.05,-20.42 -0.11,-40.84 0.09,-61.26 z"
       opacity="1.00"
       fill="#3b3c95" />
    <path
       inkscape:connector-curvature="0"
       id="path35"
       d="m 273.57,97.77 c 28.35,-0.05 56.72,0.24 85.06,-0.15 1.4,6.27 0.07,12.87 0.7,19.27 -10.99,0.28 -21.99,0.03 -32.99,0.1 0.11,28.01 0.16,56.02 -0.02,84.02 -6.77,-0.06 -13.54,0.12 -20.3,-0.11 -0.12,-28.01 0.09,-56.02 -0.11,-84.03 -10.8,0.23 -21.61,0.21 -32.4,0.02 0.14,-6.38 0.04,-12.75 0.06,-19.12 z"
       opacity="1.00"
       fill="#3b3c95" />
  </g>
  <g
     transform="translate(-52.05,-95.67)"
     id="#000000ff">
    <path
       inkscape:connector-curvature="0"
       id="path38"
       d="m 578.79,97.71 c 3.2,-0.49 6.37,-1.18 9.5,-2.04 0.13,10.98 0.15,21.95 -0.01,32.92 0.43,-0.07 1.28,-0.22 1.7,-0.3 12.88,-9.95 32.88,-11.76 45.99,-1.25 9.44,7.6 13.35,20.2 13.23,31.98 0.28,12.39 -3.37,25.75 -13.05,34.09 -5.3,4.84 -12.15,7.62 -19.15,8.87 -12.98,1.53 -26.2,-0.64 -38.29,-5.52 0.25,-32.91 0.09,-65.84 0.08,-98.75 m 9.82,39.24 c -0.5,17.82 -0.17,35.68 -0.17,53.52 4.78,1.13 9.51,2.6 14.44,2.98 9.23,1.15 19.62,-0.19 26.67,-6.78 7.29,-6.32 9.41,-16.49 9.8,-25.7 -0.1,-7.47 -1.29,-15.32 -5.71,-21.54 -4.75,-7.45 -14,-11.17 -22.64,-10.45 -8.19,0.01 -15.52,4.01 -22.39,7.97 z"
       opacity="1.00"
       fill="#000000" />
    <path
       inkscape:connector-curvature="0"
       id="path40"
       d="m 493.91,127.15 c 9.57,-5.44 19.93,-10.37 31.15,-10.67 9.39,-0.28 19.53,2.32 26.14,9.36 5.1,5.36 7.05,12.92 7.07,20.16 0.03,15.29 -0.04,30.59 0.03,45.89 4.42,0.83 8.83,1.68 13.24,2.57 -0.02,1.54 -0.04,3.09 -0.04,4.63 -5.5,1.95 -11.79,3.59 -17.34,0.98 -2.92,-1.2 -4.75,-3.88 -5.98,-6.66 -8.7,4.73 -18.13,8.93 -28.21,9.02 -11.18,0.32 -22.69,-5.71 -27.7,-15.91 -4.18,-8.43 -3.72,-20.15 3.71,-26.65 4.99,-4.13 11.71,-5.34 18.02,-5.5 11.19,-0.13 22.35,0.95 33.52,1.47 -0.26,-7.43 1.18,-15.69 -3.2,-22.25 -4.24,-6.17 -12.36,-7.76 -19.37,-7.48 -9.9,-0.1 -19.12,3.87 -28.36,6.86 -1.03,-1.88 -1.98,-3.8 -2.68,-5.82 m 8.79,39.52 c -3.62,6.06 -2.6,14.42 1.8,19.83 4.93,5.84 13.22,7.34 20.48,6.57 7.68,-0.95 15.45,-3.02 22.1,-7.06 1.03,-7.38 0.16,-15.03 0.42,-22.52 -10.43,-0.89 -20.97,-0.13 -31.45,-0.39 -4.56,0.06 -10.34,-0.71 -13.35,3.57 z"
       opacity="1.00"
       fill="#000000" />
    <path
       inkscape:connector-curvature="0"
       id="path42"
       d="m 688.44,120.81 c 12.01,-2.41 25.19,0.18 34.8,7.96 16.63,13.29 19.37,39.58 7.46,56.84 -5.33,7.81 -13.7,13.34 -22.81,15.71 -12.48,2.74 -26.54,0.74 -36.51,-7.7 -17.39,-13.73 -19.62,-41.92 -5.84,-58.94 5.58,-7.23 14.01,-12.02 22.9,-13.87 m 1.13,9.1 c -7.01,1.73 -13.53,5.96 -17.5,12.05 -9.17,13.26 -7.4,33.38 4.94,44.09 11.71,10.45 31.51,9.77 42.4,-1.58 12.45,-12.94 11.95,-36.37 -1.87,-48.15 -7.47,-6.75 -18.35,-8.53 -27.97,-6.41 z"
       opacity="1.00"
       fill="#000000" />
    <path
       inkscape:connector-curvature="0"
       id="path44"
       d="m 295.61,245.61 c 1.91,-0.33 3.4,0.9 3.14,2.89 -1.09,0.13 -2.17,0.11 -3.24,-0.07 -0.12,-0.94 -0.09,-1.88 0.1,-2.82 z"
       opacity="1.00"
       fill="#000000" />
    <path
       inkscape:connector-curvature="0"
       id="path46"
       d="m 465.66,246.68 c 0.41,-0.35 1.22,-1.05 1.63,-1.4 0.75,3.11 0.35,6.34 0.38,9.51 2.6,-1.9 5.87,-3.65 9.19,-2.73 2.66,0.64 4.53,3.21 4.62,5.9 0.17,4.74 -0.02,9.49 0.09,14.23 -0.54,0.01 -1.61,0.02 -2.14,0.02 -0.1,-4.75 0.2,-9.52 -0.14,-14.26 -0.97,-5.64 -8.44,-4.27 -11.66,-1.4 0.16,5.2 0.04,10.4 0.08,15.6 -0.5,0.03 -1.49,0.08 -1.99,0.11 -0.04,-8.53 0.06,-17.05 -0.06,-25.58 z"
       opacity="1.00"
       fill="#000000" />
    <path
       inkscape:connector-curvature="0"
       id="path48"
       d="m 63.71,246.31 c 0.95,0.04 1.9,0.07 2.85,0.11 3.4,8.67 7.01,17.27 10.34,25.97 -2.37,0.87 -2.82,-1.51 -3.49,-2.93 -0.8,-2.03 -1.61,-4.04 -2.36,-6.08 -3.89,0.1 -7.8,-0.17 -11.69,0.11 -2.06,2.4 -2.08,6.12 -4.05,8.67 l -2.07,0.13 c 3.36,-8.71 6.86,-17.37 10.47,-25.98 m -4.09,15.09 c 3.59,0.09 7.19,0.09 10.79,0.04 -2.08,-4.3 -3.56,-8.86 -5.46,-13.24 -1.56,4.48 -3.3,8.91 -5.33,13.2 z"
       opacity="1.00"
       fill="#000000" />
    <path
       inkscape:connector-curvature="0"
       id="path50"
       d="m 263.43,246.31 c 0.52,-0.08 1.55,-0.22 2.06,-0.29 -0.04,2.68 -0.06,5.37 -0.02,8.06 2.96,-2.05 7.05,-2.73 10.36,-1.2 6.25,4.45 5.39,16.25 -1.99,19.14 -3.43,1.06 -7,0.09 -10.34,-0.79 -0.12,-8.31 -0.02,-16.62 -0.07,-24.92 m 2.07,9.58 c -0.09,4.53 0,9.07 -0.12,13.61 3.75,1.69 9.49,1.68 11.37,-2.67 1.51,-3.94 1.53,-9.4 -2.16,-12.18 -3.02,-1.36 -6.4,-0.39 -9.09,1.24 z"
       opacity="1.00"
       fill="#000000" />
    <path
       inkscape:connector-curvature="0"
       id="path52"
       d="m 315.22,246.24 c 0.51,-0.05 1.53,-0.16 2.04,-0.21 0,8.73 -0.03,17.45 0.02,26.18 -0.52,0.01 -1.58,0.02 -2.1,0.02 0.11,-8.66 0.03,-17.33 0.04,-25.99 z"
       opacity="1.00"
       fill="#000000" />
    <path
       inkscape:connector-curvature="0"
       id="path54"
       d="m 383.03,246.35 c 0.58,0.01 1.74,0.01 2.32,0.02 1.73,7.77 3.73,15.48 5.53,23.23 2.57,-7.69 5.07,-15.42 7.44,-23.19 0.93,-0.01 1.87,-0.03 2.82,-0.04 2.29,7.78 5.28,15.36 7.04,23.29 0.26,-0.63 0.78,-1.89 1.05,-2.52 1.35,-6.9 3.54,-13.61 4.72,-20.54 0.93,-0.12 1.87,-0.21 2.82,-0.29 -2.24,8.63 -4.65,17.21 -6.68,25.89 -1.58,0.26 -3.41,0.02 -3.52,-1.95 -2.19,-7.12 -4.66,-14.16 -6.66,-21.34 -2.76,7.73 -5.08,15.6 -7.6,23.41 -0.66,-0.05 -1.98,-0.14 -2.64,-0.18 -2.47,-8.52 -4.93,-17.09 -6.64,-25.79 z"
       opacity="1.00"
       fill="#000000" />
    <path
       inkscape:connector-curvature="0"
       id="path56"
       d="m 700.64,246.41 c 0.95,-0.03 1.91,-0.06 2.88,-0.09 3.59,8.6 6.87,17.34 10.51,25.93 -0.58,0 -1.74,0 -2.31,0.01 -1.31,-2.89 -2.49,-5.82 -3.55,-8.8 -4.01,-0.05 -8.03,-0.21 -12.03,0.03 -1.62,2.75 -1.84,6.27 -3.94,8.71 l -1.91,0.08 c 3.36,-8.66 6.91,-17.24 10.35,-25.87 m -3.82,15 c 3.52,0.11 7.05,0.11 10.59,-0.02 -1.99,-4.29 -3.45,-8.79 -5.4,-13.09 -1.59,4.42 -3.36,8.78 -5.19,13.11 z"
       opacity="1.00"
       fill="#000000" />
    <path
       inkscape:connector-curvature="0"
       id="path58"
       d="m 728.11,254.82 c 1.66,-6.34 8.82,-10.34 15.11,-8.6 2.32,0.59 6.49,1.15 5.36,4.62 -3.42,-2.67 -8.01,-3.31 -12.13,-2.2 -7.75,2.81 -9.1,14.74 -2.63,19.6 3.49,2.95 8.51,2.48 12.5,0.86 -0.05,-2.93 -0.05,-5.85 0.02,-8.77 -2.89,0.05 -5.76,0.05 -8.63,0.07 -0.03,-0.76 -0.04,-1.51 -0.04,-2.25 3.65,-0.01 7.31,-0.01 10.97,0.02 -0.03,4.02 0.02,8.03 -0.12,12.05 -3.51,2.14 -7.64,2.62 -11.65,2.06 -7.33,-1.95 -11.11,-10.49 -8.76,-17.46 z"
       opacity="1.00"
       fill="#000000" />
    <path
       inkscape:connector-curvature="0"
       id="path60"
       d="m 122.11,254.12 c 1.85,-1.9 3.61,-3.89 5.11,-6.09 0.19,1.43 0.29,2.87 0.39,4.32 2.28,-0.04 4.55,-0.06 6.83,-0.06 -0.01,0.49 -0.03,1.46 -0.04,1.95 -2.31,-0.04 -4.62,-0.06 -6.92,-0.05 0.04,4.21 -0.11,8.44 0.03,12.66 -0.08,1.35 0.78,2.41 1.44,3.5 0.83,0.04 2.48,0.12 3.3,0.16 0.73,-0.42 1.46,-0.83 2.19,-1.25 0.15,0.49 0.44,1.47 0.58,1.96 -2.96,1.86 -8.07,2.06 -9.33,-1.92 -0.75,-4.94 -0.2,-9.98 -0.3,-14.96 -0.82,-0.05 -2.46,-0.16 -3.28,-0.22 z"
       opacity="1.00"
       fill="#000000" />
    <path
       inkscape:connector-curvature="0"
       id="path62"
       d="m 336.4,253.37 c 3.04,-2.38 7.92,-2.07 10.59,0.72 1.99,2.56 2.29,5.94 2.47,9.06 -5,0.08 -10.02,-0.33 -14.99,0.25 0.82,2.31 1.75,4.86 4.05,6.1 3.15,1.79 6.93,0.74 10.14,-0.32 0.02,0.51 0.07,1.54 0.09,2.05 -3.69,1.14 -8.06,2.13 -11.59,-0.02 -5.88,-3.82 -5.92,-13.41 -0.76,-17.84 m -1.82,7.99 c 4.21,0 8.42,0.02 12.63,0.02 0.03,-3.32 -1.45,-7.23 -5.23,-7.6 -4.39,-0.6 -7.02,3.76 -7.4,7.58 z"
       opacity="1.00"
       fill="#000000" />
    <path
       inkscape:connector-curvature="0"
       id="path64"
       d="m 438.56,252.03 c 5.09,-1.25 10.26,2.8 11.07,7.82 1.58,5.94 -3.18,13.17 -9.65,12.62 -4.59,0.08 -8.42,-3.92 -9.04,-8.31 -1.14,-5.18 2.22,-11.23 7.62,-12.13 m -1.23,2.54 c -6.19,2.84 -5.79,13.39 0.74,15.56 5.44,2.03 10.72,-3.84 9.57,-9.13 -0.1,-5 -5.76,-8.54 -10.31,-6.43 z"
       opacity="1.00"
       fill="#000000" />
    <path
       inkscape:connector-curvature="0"
       id="path66"
       d="m 520.9,252.9 c 3.24,-1.97 8.17,-1.41 10.32,1.9 1.75,2.4 1.52,5.54 2.02,8.34 -5,0.15 -10.04,-0.4 -15.01,0.32 0.85,3.01 2.68,5.67 5.61,6.94 3,0.17 5.96,-0.28 8.83,-1.19 0.87,2.59 -1.96,2.39 -3.41,2.95 -4.11,0.97 -9.28,-0.01 -11.33,-4.1 -2.54,-4.8 -1.88,-12.01 2.97,-15.16 m -2.52,8.51 c 4.2,-0.06 8.39,-0.05 12.59,-0.03 -0.02,-3.18 -1.29,-7.23 -5.02,-7.49 -4.44,-0.98 -7.38,3.61 -7.57,7.52 z"
       opacity="1.00"
       fill="#000000" />
    <path
       inkscape:connector-curvature="0"
       id="path68"
       d="m 583.75,252.73 c 1.66,-0.8 3.54,-0.91 5.36,-1.03 1.71,0.58 3.45,1.15 5.13,1.86 -0.02,0.59 -0.06,1.76 -0.08,2.35 -2.85,-1.45 -6.4,-3.19 -9.47,-1.33 -2.15,0.92 -1.82,4.43 0.18,5.38 2.86,1.7 6.65,1.67 9.04,4.21 2.02,2.44 1.16,6.72 -1.92,7.9 -3.48,1.25 -7.2,0.2 -10.53,-0.99 -0.24,-0.92 -0.45,-1.83 -0.64,-2.75 2.81,1.64 6,2.62 9.28,2.23 2.9,0.3 3.68,-4.11 1.73,-5.61 -2.71,-1.83 -6.29,-1.81 -8.89,-3.82 -2.72,-2.11 -2.12,-6.77 0.81,-8.4 z"
       opacity="1.00"
       fill="#000000" />
    <path
       inkscape:connector-curvature="0"
       id="path70"
       d="m 609.41,259.88 c 0.16,-3.84 3.19,-7.53 7.09,-8.01 2.78,-0.47 6.01,0.56 7.48,3.09 1.63,2.4 1.66,5.4 1.87,8.19 -4.88,-0.02 -9.76,-0.06 -14.63,0 0.19,3.3 2.39,6.15 5.48,7.27 2.92,0.16 5.79,-0.35 8.58,-1.24 -0.02,0.51 -0.04,1.54 -0.06,2.05 -4.26,1.43 -9.78,2.28 -13.25,-1.28 -2.77,-2.56 -2.94,-6.57 -2.56,-10.07 m 1.69,1.52 c 4.17,-0.05 8.34,-0.05 12.51,0 0.28,-3.48 -1.66,-7.49 -5.55,-7.63 -4.29,-0.46 -6.72,3.92 -6.96,7.63 z"
       opacity="1.00"
       fill="#000000" />
    <path
       inkscape:connector-curvature="0"
       id="path72"
       d="m 643.96,254.74 c 2.73,-3.8 9.03,-3.94 12.06,-0.46 1.92,2.53 1.89,5.87 2.36,8.87 -4.96,-0.02 -9.92,-0.08 -14.88,0.03 0.5,2.28 1.34,4.67 3.41,6.01 3.17,2.21 7.24,1.11 10.61,-0.03 0.03,0.52 0.08,1.56 0.11,2.08 -3.7,1.13 -8.05,2.1 -11.58,-0.03 -5.37,-3.42 -5.77,-11.68 -2.09,-16.47 m -0.48,6.65 c 4.16,-0.04 8.33,-0.02 12.5,0.01 0.41,-3.81 -1.89,-7.39 -5.79,-7.91 -4.02,0.5 -6.48,4.05 -6.71,7.9 z"
       opacity="1.00"
       fill="#000000" />
    <path
       inkscape:connector-curvature="0"
       id="path74"
       d="m 91.28,252.33 c 0.48,-0.02 1.43,-0.06 1.91,-0.08 0.06,4.29 -0.14,8.59 0.04,12.88 -0.02,2.25 1.35,4.62 3.63,5.21 2.89,0.64 5.51,-0.98 7.94,-2.29 -0.01,-5.2 0.02,-10.4 -0.02,-15.6 0.55,-0.02 1.66,-0.07 2.21,-0.09 -0.18,6.66 0.05,13.33 -0.13,20 -1.7,0.05 -2.47,-0.84 -2.3,-2.67 -1.38,1.07 -2.91,1.93 -4.48,2.71 -3.49,0.54 -7.9,-0.51 -8.66,-4.5 -0.34,-5.18 -0.02,-10.38 -0.14,-15.57 z"
       opacity="1.00"
       fill="#000000" />
    <path
       inkscape:connector-curvature="0"
       id="path76"
       d="m 148.76,261.97 c 0.41,-4.23 2.83,-8.76 7.27,-9.79 5.06,-1.57 10.68,2.16 11.65,7.28 1.55,5.21 -1.59,10.91 -6.54,12.91 -3.16,0.28 -6.72,0.1 -9.05,-2.34 -2.32,-2.06 -2.87,-5.16 -3.33,-8.06 m 6.64,-7.34 c -6.81,3.12 -5.24,15.35 2.54,15.85 6.69,0.56 9.94,-7.96 6.73,-13.04 -1.8,-3.13 -6.05,-4.25 -9.27,-2.81 z"
       opacity="1.00"
       fill="#000000" />
    <path
       inkscape:connector-curvature="0"
       id="path78"
       d="m 236.2,251.9 c 8.1,-1.25 13.34,9.15 9.21,15.62 -2.69,5.8 -11.73,6.81 -15.39,1.47 -4.98,-5.64 -1.73,-16.42 6.18,-17.09 m -1.78,2.61 c -6.42,2.55 -6.09,13.52 0.57,15.57 5.34,2.08 10.69,-3.76 9.6,-9 -0.12,-4.94 -5.58,-8.57 -10.17,-6.57 z"
       opacity="1.00"
       fill="#000000" />
    <path
       inkscape:connector-curvature="0"
       id="path80"
       d="m 295.85,252.46 c 0.49,-0.05 1.46,-0.15 1.94,-0.2 0.07,6.64 -0.02,13.28 0.07,19.93 -0.67,0.01 -1.34,0.03 -2,0.05 0.08,-6.59 0.03,-13.19 -0.01,-19.78 z"
       opacity="1.00"
       fill="#000000" />
    <path
       inkscape:connector-curvature="0"
       id="path82"
       d="m 551.79,254.8 c 2.42,-1.78 5.25,-3.14 8.33,-2.66 3.08,-0.22 5.34,2.84 5.51,5.68 0.2,4.81 0,9.63 0.08,14.45 -0.54,-0.02 -1.62,-0.06 -2.16,-0.09 -0.12,-4.92 0.32,-9.87 -0.2,-14.77 -1.38,-5.04 -8.88,-3.86 -11.43,-0.5 -0.19,5.09 -0.01,10.19 -0.06,15.29 -0.51,0.01 -1.55,0.03 -2.07,0.04 0.11,-6.54 -0.13,-13.08 0.12,-19.61 l 1.65,-0.78 c 0.06,0.74 0.17,2.21 0.23,2.95 z"
       opacity="1.00"
       fill="#000000" />
  </g>
  <g
     transform="translate(-52.05,-95.67)"
     id="#241a4fff">
    <path
       inkscape:connector-curvature="0"
       id="path85"
       d="m 198.78,174.34 c 0,-0.05 0,-0.16 -0.01,-0.21 l 0.17,0.29 z"
       opacity="1.00"
       fill="#241a4f" />
  </g>
  <g
     transform="translate(-52.05,-95.67)"
     id="#0f0f0fff">
    <path
       inkscape:connector-curvature="0"
       id="path88"
       d="m 498.83,246.76 c 0.3,-0.32 0.9,-0.97 1.2,-1.3 0.29,0.33 0.86,0.98 1.14,1.31 -0.07,8.48 -0.02,16.96 -0.02,25.44 -0.58,0 -1.75,0.02 -2.34,0.02 0.02,-8.49 0,-16.98 0.02,-25.47 z"
       opacity="1.00"
       fill="#0f0f0f" />
  </g>
  <g
     transform="translate(-52.05,-95.67)"
     id="#fefefeff">
    <path
       inkscape:connector-curvature="0"
       id="path91"
       d="m 59.62,261.4 c 2.03,-4.29 3.77,-8.72 5.33,-13.2 1.9,4.38 3.38,8.94 5.46,13.24 -3.6,0.05 -7.2,0.05 -10.79,-0.04 z"
       opacity="1.00"
       fill="#fefefe" />
    <path
       inkscape:connector-curvature="0"
       id="path93"
       d="m 696.82,261.41 c 1.83,-4.33 3.6,-8.69 5.19,-13.11 1.95,4.3 3.41,8.8 5.4,13.09 -3.54,0.13 -7.07,0.13 -10.59,0.02 z"
       opacity="1.00"
       fill="#fefefe" />
    <path
       inkscape:connector-curvature="0"
       id="path95"
       d="m 155.4,254.63 c 3.22,-1.44 7.47,-0.32 9.27,2.81 3.21,5.08 -0.04,13.6 -6.73,13.04 -7.78,-0.5 -9.35,-12.73 -2.54,-15.85 z"
       opacity="1.00"
       fill="#fefefe" />
    <path
       inkscape:connector-curvature="0"
       id="path97"
       d="m 334.58,261.36 c 0.38,-3.82 3.01,-8.18 7.4,-7.58 3.78,0.37 5.26,4.28 5.23,7.6 -4.21,0 -8.42,-0.02 -12.63,-0.02 z"
       opacity="1.00"
       fill="#fefefe" />
    <path
       inkscape:connector-curvature="0"
       id="path99"
       d="m 518.38,261.41 c 0.19,-3.91 3.13,-8.5 7.57,-7.52 3.73,0.26 5,4.31 5.02,7.49 -4.2,-0.02 -8.39,-0.03 -12.59,0.03 z"
       opacity="1.00"
       fill="#fefefe" />
    <path
       inkscape:connector-curvature="0"
       id="path101"
       d="m 611.1,261.4 c 0.24,-3.71 2.67,-8.09 6.96,-7.63 3.89,0.14 5.83,4.15 5.55,7.63 -4.17,-0.05 -8.34,-0.05 -12.51,0 z"
       opacity="1.00"
       fill="#fefefe" />
    <path
       inkscape:connector-curvature="0"
       id="path103"
       d="m 643.48,261.39 c 0.23,-3.85 2.69,-7.4 6.71,-7.9 3.9,0.52 6.2,4.1 5.79,7.91 -4.17,-0.03 -8.34,-0.05 -12.5,-0.01 z"
       opacity="1.00"
       fill="#fefefe" />
  </g>
  <g
     transform="translate(-52.05,-95.67)"
     id="#181818ff">
    <path
       inkscape:connector-curvature="0"
       id="path106"
       d="m 198.48,254.87 c 2.39,-2.01 5.53,-3.57 8.73,-3 2.81,0.62 4.67,3.36 4.78,6.15 0.33,4.72 0.04,9.46 0.19,14.18 -0.8,0.02 -1.59,0.04 -2.37,0.06 -0.32,-5.37 0.69,-10.93 -0.7,-16.17 -2.39,-3.51 -7.11,-1.71 -10.05,0.02 0.03,5.38 -0.03,10.76 0.04,16.14 -0.56,0 -1.68,-0.01 -2.24,-0.01 -0.05,-4.48 0.1,-8.96 -0.06,-13.44 -0.02,-2.08 -1.41,-4.49 -3.68,-4.64 -2.54,-0.61 -4.78,1.01 -6.96,2.04 -0.1,5.33 -0.03,10.66 -0.03,15.99 -0.79,0.02 -1.58,0.05 -2.37,0.07 0.07,-6.6 -0.07,-13.2 0.06,-19.8 0.43,-0.12 1.29,-0.37 1.72,-0.5 0.15,0.65 0.45,1.95 0.59,2.61 3.37,-3.23 9.56,-4.15 12.35,0.3 z"
       opacity="1.00"
       fill="#181818" />
  </g>
</svg>
